<svg width="885" height="649" viewBox="0 0 885 649" fill="none" xmlns="http://www.w3.org/2000/svg">
<path  path id="path1" fill-rule="evenodd" clip-rule="evenodd" d="M566.162 21.3654C565.28 26.3362 565.988 31.3451 564.942 36.527C563.682 42.7734 559.448 48.7094 557.935 54.9965C557.407 57.1898 557.34 60.0682 557.021 62.7151C556.712 65.2816 555.822 68.2984 556.107 70.4338C556.582 73.9924 559.614 78.1728 561.287 82.012C562.68 85.2118 565.786 90.8027 566.162 93.8658C566.49 96.5425 565.581 100.275 565.247 103.514C564.914 106.755 564.343 110.076 564.028 113.163C563.337 119.968 563.542 127.146 562.201 133.011C561.237 137.222 558.807 140.949 557.935 144.864C556.884 149.582 557.161 155.028 556.107 160.026C551.957 160.038 547.952 160.182 544.224 160.577C535.212 150.043 524.909 138.799 514.672 128.6C511.685 125.624 507.838 119.737 504.008 118.4C499.734 116.908 493.272 118.423 490.602 114.541C487.885 111.853 485.041 109.28 482.072 106.823C481.981 106.26 481.247 106.282 481.157 105.72C478.745 103.308 476.206 101.011 473.54 98.8283C472.027 93.4689 475.023 89.9064 475.672 85.5965C476.377 84.6716 475.78 82.5687 475.977 81.1862C475.977 78.8888 475.977 76.5919 475.977 74.2944C474.811 66.8509 477.763 60.303 477.501 53.8946C477.222 47.0684 474.311 40.7769 473.845 33.771C481.007 33.0406 478.452 22.0952 479.329 14.1985C479.839 9.60528 482.648 6.53283 483.29 3.44769C489.381 0.96393 497.057 -0.0844708 506.445 0.415479C507.772 0.237437 509.889 0.774869 510.71 0.139873C512.813 0.477214 515.554 -0.302751 517.108 0.139873C522.7 1.73122 519.272 11.6365 523.202 13.9229C525.883 15.4834 531.757 14.5938 535.694 14.7497C540.227 14.9305 544.405 15.0992 548.49 15.301C553.96 17.7037 556.879 22.4133 566.162 21.3654Z" fill="#A71A12"/>
<path  path id="path2" fill-rule="evenodd" clip-rule="evenodd" d="M553.004 240.217C563.619 233.103 581.113 232.197 595.315 228.321C598.213 256.415 601.613 284.055 604.82 311.869C600.801 320.14 597.255 328.835 593.169 337.045C579.162 331.793 564.273 327.338 549.324 322.936C548.101 318.6 546.738 314.389 545.033 310.487C544.418 309.658 542.516 309.991 541.047 309.933C540.622 309.303 538.913 309.83 537.98 309.657C534.958 309.826 531.885 309.493 528.783 309.38C525.65 309.266 521.841 308.451 519.585 309.104C516.537 309.984 516.837 313.817 514.066 315.19C513.147 315.19 512.226 315.19 511.306 315.19C510.881 314.559 509.173 315.087 508.241 314.914C504.012 314.579 502.678 311.634 499.962 309.934C499.962 308.828 499.962 307.721 499.962 306.614C500.667 305.959 500.072 304.132 500.269 303.018C500.269 301.174 500.269 299.329 500.269 297.485C499.179 292.608 504.371 290.787 506.094 287.526C508.048 283.828 507.611 280.396 509.467 276.46C517.52 271.091 525.276 265.457 535.835 262.351C539.503 257.177 541.857 250.817 546.259 246.305C548.635 244.39 550.884 242.361 553.004 240.217Z" fill="#DE463D"/>
<path  path id="path3" fill-rule="evenodd" clip-rule="evenodd" d="M312.742 434.897C320.587 435.893 328.618 436.188 337.415 435.72C340.868 435.539 345.13 436.085 348.076 435.446C349.211 435.463 350.002 435.169 350.817 434.897C354.779 438.683 358.718 442.73 362.697 446.975C366.409 450.935 370.548 455.856 375.795 458.229C380.478 460.348 386.456 459.887 392.852 461.249C393.83 464.851 394.459 468.767 395.898 471.954C399.999 472.834 405.602 472.359 409.909 473.052C412.459 477.343 414.608 481.993 416.915 486.502C414.346 492.71 412.228 500.43 411.127 509.012C409.893 518.642 409.948 526.501 412.345 533.716C407.644 535.701 403.917 538.564 395.898 537.559C394.071 537.559 392.243 537.559 390.415 537.559C387.809 535.898 385.469 534.042 382.801 532.069C380.589 530.435 376.858 528.602 375.49 526.305C373.338 522.692 373.04 517.44 371.835 513.129C370.605 508.727 369.164 504.543 367.876 500.227C360.258 497.759 353.528 494.491 345.335 492.541C340.563 492.541 335.791 492.541 331.019 492.541C328.073 492.723 324.32 492.178 321.881 492.816C317.82 492.816 313.759 492.816 309.697 492.816C306.346 492.998 302.186 492.452 299.341 493.091C296.464 495.347 296.26 500.013 294.163 502.972C289.149 506.347 282.261 504.542 276.191 506.266C270.452 507.897 266.04 513.837 260.047 513.678C260.788 509.587 261.326 505.314 262.179 501.325C265.103 499.595 266.82 496.457 270.403 495.012C275.776 492.845 282.702 492.909 288.984 491.169C290.515 486.251 293.925 482.17 295.076 477.17C296.154 472.484 294.938 467.81 295.989 462.621C296.377 460.711 298.017 458.65 299.035 456.583C303.053 448.429 307.891 440.863 312.742 434.897Z" fill="#DE463D"/>
<path  path id="path4" fill-rule="evenodd" clip-rule="evenodd" d="M328.406 113.003C333.035 113.528 334.074 111.621 336.339 109.416C340.747 105.126 344.587 99.9423 347.324 95.3428C356.288 102.037 366.105 109.842 375.396 117.143C377.771 119.009 383.786 122.315 384.549 124.593C385.075 126.162 384.139 128.341 384.549 129.56C384.549 132.227 384.549 134.895 384.549 137.562C384.747 138.855 384.15 140.867 384.854 141.701C386.046 149.678 381.127 152.127 379.057 157.155C379.44 157.268 379.68 157.511 379.667 157.982C376.529 163.278 373.479 167.622 369.292 171.78C367.44 173.62 364.663 175.307 363.8 177.299C362.098 181.23 362.655 185.635 361.054 190.544C360.351 191.288 360.945 193.206 360.749 194.407C360.749 196.431 360.749 198.455 360.749 200.478C360.749 202.317 360.749 204.157 360.749 205.997C360.046 206.74 360.64 208.658 360.444 209.86C360.444 211.883 360.444 213.907 360.444 215.93C360.444 218.229 360.444 220.529 360.444 222.829C354.398 221.381 351.635 223.022 347.933 225.037C346.123 226.021 343.883 227.027 342.746 228.072C338.592 231.889 337.043 238.538 335.423 243.525C329.582 245.693 323.823 247.935 317.42 249.596C315.6 254.205 313.487 258.549 310.403 262.013C309.747 262.525 308.167 262.2 307.046 262.289C305.11 262.47 302.372 261.926 300.944 262.565C298.096 262.565 295.248 262.565 292.4 262.565C289.144 262.748 285.079 262.199 282.331 262.841C280.387 262.647 279.71 263.599 278.975 264.496C277.728 265.393 276.609 266.404 275.618 267.532C274.474 268.336 273.457 269.256 272.567 270.291C272.567 270.383 272.567 270.475 272.567 270.567C271.321 271.463 270.202 272.475 269.211 273.602C268.067 277.075 267.778 281.321 267.075 285.192C262.601 282.689 258.698 279.4 254.259 276.361C249.96 273.419 244.571 271.005 241.138 267.532C239.206 265.576 238.586 262.87 236.257 261.185C230.234 261.204 229.099 256.805 226.493 253.735C233.051 256.542 242.03 257.16 251.819 257.046C255.318 253.326 260.59 249.132 264.024 244.628C267.383 240.222 269.774 235.358 268.906 227.519C268.906 225.772 268.906 224.025 268.906 222.277C268.906 218.322 268.906 214.366 268.906 210.411C268.704 207.558 269.311 203.974 268.601 201.581C268.601 195.878 268.601 190.175 268.601 184.472C270.017 182.468 273.554 181.48 274.399 179.229C275.091 177.386 274.78 174.264 275.009 171.779C276.582 154.691 278.069 135.639 279.891 119.625C286.917 119.863 294.69 119.928 300.945 120.177C303.199 120.267 305.826 120.941 307.963 120.177C312.384 118.595 311.849 110.473 319.558 112.726C319.981 113.356 321.682 112.829 322.609 113.002C324.54 113.003 326.473 113.003 328.406 113.003Z" fill="#DE463D"/>
<path  path id="path5" fill-rule="evenodd" clip-rule="evenodd" d="M471.27 34.2899C471.831 41.1527 475.194 47.646 475.266 54.4172C475.317 59.2698 472.808 63.9245 473.422 69.3059C472.711 70.231 473.313 72.3337 473.114 73.7169C473.114 76.0142 473.114 78.3121 473.114 80.6099C474.226 88.5378 469.239 91.7089 470.963 99.3589C471.766 100.292 472.703 101.107 473.422 102.116C475.957 104.621 478.622 107.01 481.413 109.285C484.155 111.973 487.023 114.546 490.02 117.005C492.586 119.758 499.13 118.943 503.546 120.037C521.749 137.898 539.7 155.986 553.649 177.663C547.992 186.466 542.671 195.571 537.358 204.683C534.34 206.111 531.827 207.993 528.751 209.37C526.903 209.55 524.248 209.007 522.91 209.646C521.067 209.646 519.223 209.646 517.378 209.646C515.226 209.646 513.074 209.646 510.923 209.646C509.584 209.824 507.449 209.286 506.619 209.921C504.775 209.921 502.931 209.921 501.086 209.921C498.935 209.921 496.782 209.921 494.631 209.921C493.095 209.921 491.557 209.921 490.02 209.921C488.066 208.826 485.679 208.118 484.18 206.613C481.554 198.032 479.53 188.912 476.803 180.42C468.967 174.536 460.495 169.203 452.519 163.601C449.864 161.736 447.368 159.187 444.527 157.811C440.315 155.772 435.259 155.525 430.695 153.399C428.238 150.732 426.082 147.795 423.626 145.128C424.402 143.528 425.895 142.569 426.391 140.717C427.103 139.608 426.498 137.32 426.699 135.754C426.5 134.37 427.102 132.267 426.391 131.342C426.391 128.493 426.391 125.644 426.391 122.795C426.391 120.037 426.391 117.28 426.391 114.523C426.192 113.231 426.793 111.221 426.084 110.387C426.084 107.538 426.084 104.689 426.084 101.84C426.084 99.0832 426.084 96.3261 426.084 93.569C426.084 92.2823 426.084 90.9955 426.084 89.7088C429.977 83.4062 434.844 76.9062 438.994 70.6841C440.416 68.5522 442.518 66.0653 443.297 64.0673C446.05 57.0034 445.634 49.5127 448.523 41.7343C456.049 39.2016 463.62 36.7102 471.27 34.2899Z" fill="#FF928B"/>
<path  path id="path6" fill-rule="evenodd" clip-rule="evenodd" d="M691.403 339.371C694.905 335.652 699.578 333.803 704.848 330.834C710.308 327.758 713.509 323.726 721.044 323.674C727.564 323.49 734.897 324.041 740.907 323.398C752.227 321.001 758.875 314.359 767.799 309.629C773.154 306.791 780.017 304.73 785.217 301.919C785.217 302.837 785.217 303.755 785.217 304.673C785.416 306.054 784.817 308.154 785.524 309.079C785.366 315.186 792.26 314.941 795.914 317.616C796.837 318.251 799.065 317.713 800.496 317.891C801.16 321.791 801.403 326.069 803.247 328.906C802.067 334.645 796.567 339.779 797.441 346.53C797.709 348.608 800.532 351.075 801.107 353.966C801.81 357.496 800.675 361.577 801.414 364.705C801.88 366.677 804.115 368.248 804.469 369.938C802.824 372.585 801.402 375.434 799.58 377.923C790.986 380.022 783.02 382.644 772.994 385.635C768.885 386.86 764.485 388.177 759.854 389.489C756.047 390.569 748.425 391.747 746.713 393.62C745.366 395.095 745.668 399.156 745.491 402.432C745.326 405.472 745.421 408.899 745.186 411.244C744.884 414.261 742.584 416.752 740.907 419.231C736.481 425.776 732.848 430.825 728.379 437.406C725.146 436.441 722.819 437.104 720.127 436.029C717.288 434.895 716.058 431.873 713.405 431.071C709.74 429.965 705.475 430.867 700.569 429.97C697.743 425.501 697.185 420.154 694.152 416.201C691.67 412.966 686.924 411.835 684.679 408.491C687.832 400.469 694.755 389.093 688.957 380.402C686.623 380.028 684.138 379.788 681.318 379.851C679.302 378.271 677.966 376.079 676.123 374.343C678.591 362.708 678.943 349.164 687.43 342.951C688.881 341.872 690.206 340.679 691.403 339.371Z" fill="#FF928B"/>
<path  path id="path7"  fill-rule="evenodd" clip-rule="evenodd" d="M59.1987 223.303C67.8546 227.653 76.8204 232.923 84.5263 238.171C87.1201 239.938 90.2979 241.516 92.4603 243.403C95.0426 245.656 97.1519 249.007 99.4785 251.663C101.869 254.392 104.007 257.501 106.497 259.923C110.5 263.815 115.716 266.626 119.619 270.386C124.531 275.118 127.491 281.563 132.741 286.356C136.63 289.907 143.297 291.932 148.609 294.616C150.703 295.673 152.837 297.1 155.017 298.195C157.378 299.381 160.222 300.173 162.035 301.499C164.169 303.058 165.932 306.031 168.138 308.382C170.359 310.748 173.142 312.82 174.546 314.99C176.682 318.29 177.578 322.157 179.734 325.178C183.148 329.961 189.153 333.585 193.771 337.293C198.698 341.25 203.96 344.784 208.723 348.857C210.1 351.653 210.274 355.535 210.555 359.32C210.555 359.504 210.555 359.687 210.555 359.87C206.892 359.87 203.231 359.87 199.569 359.87C195.957 358.908 192.887 357.456 188.278 357.393C185.934 359.957 184.331 363.192 182.175 365.928C182.071 371.707 181.262 376.852 181.26 382.724C177.896 387.214 174.957 392.089 172.106 397.042C166.819 397.982 162.125 402.016 156.848 402.273C154.803 402.373 150.952 401.318 148.609 400.897C142.081 399.723 136.266 398.161 133.351 394.288C132.143 392.683 131.353 389.897 130.299 387.68C128.022 382.887 125.96 378.632 123.891 374.188C122.76 371.758 122.126 368.948 120.84 367.305C119.624 365.751 116.037 363.149 114.432 362.899C110.733 362.323 105.674 364.482 102.225 364.001C100.211 366.863 98.5254 370.023 96.7327 373.087C91.5036 372.76 86.6485 372.595 81.4754 372.261C77.3604 371.995 69.8145 370.673 65.9124 371.435C62.8463 372.034 59.491 377.052 57.3682 379.145C54.462 382.009 51.8199 384.49 48.824 386.854C47.1912 383.966 45.6267 381.302 44.2465 378.043C43.1152 375.37 42.0914 370.789 39.9747 368.957C38.4334 367.623 34.3172 366.827 31.7356 365.928C22.871 362.842 14.1938 359.805 6.10292 356.842C5.79845 349.315 2.66217 344.344 0 338.945C2.47546 336.027 7.23357 336.514 9.46008 333.438C10.4766 332.034 10.4571 329.108 10.9855 326.829C12.5219 320.209 14.6648 312.955 16.4783 307.28C19.8324 305.874 23.2097 304.645 27.1587 303.15C30.0442 302.059 35.576 300.912 37.2283 298.47C39.1266 295.663 38.7934 290.925 39.3639 286.906C39.9393 282.855 40.4903 278.819 40.89 274.791C43.2324 272.826 45.6468 270.663 48.824 268.183C52.7779 265.096 58.4189 262.989 56.758 255.517C57.4628 254.594 56.8648 252.493 57.0631 251.112C58.2078 243.814 51.6174 237.313 53.4015 230.462C54.1532 227.569 57.9259 226.341 59.1987 223.303Z" fill="#DE463D"/>
<path  path id="path8" fill-rule="evenodd" clip-rule="evenodd" d="M226.934 516.235C233.111 515.712 235.602 511.881 240.452 510.168C245.802 512.351 251.378 520.474 258.272 516.51C259.461 519.119 261.288 521.156 262.572 523.68C265.258 524.763 268.051 525.749 270.56 526.99C270.491 529.042 270.066 530.774 270.253 533.057C269.744 533.443 269.744 535.704 270.253 536.091C271.03 547.032 272.841 559.434 274.247 570.01C274.765 573.902 274.668 578.376 275.783 581.317C276.987 584.491 281.223 587.062 282.235 590.141C285.167 590.819 287.659 591.891 290.53 592.623C291.27 596.096 292.585 599.051 293.602 602.276C293.229 603.687 291.662 604.027 290.837 605.033C280.778 606.944 278.227 615.591 275.475 624.061C270.506 624.427 266.432 628.888 261.343 629.577C255.202 630.408 249.215 628.166 241.988 628.749C237.717 613.933 232.08 596.145 227.241 580.214C226.01 576.163 224.89 566.534 221.711 564.495C219.843 563.296 215.923 563.496 213.416 563.392C211.637 544.581 202.921 531.997 197.133 516.786C198.668 516.786 200.205 516.786 201.741 516.786C203.589 517.245 207.574 517.245 209.421 516.786C211.162 516.786 212.903 516.786 214.644 516.786C215.78 516.61 217.705 517.143 218.331 516.51C219.97 516.51 221.608 516.51 223.247 516.51C224.382 516.334 226.308 516.868 226.934 516.235Z" fill="#A71A12"/>
<path  path id="path9"  fill-rule="evenodd" clip-rule="evenodd" d="M238.771 503.962C238.964 504.895 238.377 506.536 239.076 507.011C239.076 507.565 239.076 508.119 239.076 508.673C234.793 510.513 232.284 513.964 226.557 514.493C225.428 514.67 223.515 514.134 222.893 514.77C221.265 514.77 219.637 514.77 218.008 514.77C216.879 514.947 214.966 514.412 214.344 515.047C212.613 515.047 210.883 515.047 209.153 515.047C206.812 515.047 204.471 515.047 202.13 515.047C200.256 514.901 197.71 515.364 196.329 514.77C195.092 510.125 197.245 504.881 195.108 501.19C194.263 499.734 190.423 498.101 189.001 497.311C186.765 496.069 183.969 494.045 181.978 493.986C180.258 493.933 177.383 495.497 175.872 496.202C174.14 497.011 171.506 497.99 170.07 498.974C168.595 499.985 165.205 503.97 164.574 505.625C163.195 509.243 164.859 514.84 161.521 516.156C159.867 517.426 158.34 518.811 156.94 520.313C154.778 522.045 152.742 523.892 150.834 525.856C150.168 526.822 149.461 527.751 148.391 528.35C146.737 529.619 145.21 531.005 143.811 532.507C141.648 534.239 139.612 536.086 137.704 538.049C136.115 539.584 135.247 541.678 133.123 542.206C129.405 543.132 123.239 542.692 119.688 542.206C116.151 541.723 113.365 539.528 110.222 539.435C103.891 539.247 98.1762 542.454 92.5127 542.761C89.3605 542.931 86.5861 542.157 83.0474 541.929C86.6661 535.212 90.3123 527.485 94.0397 520.313C95.3328 517.826 97.6987 515.11 97.7036 512.831C97.7109 509.802 94.4457 505.659 92.5127 501.745C91.2544 499.197 87.2705 492.882 87.3218 490.66C87.3487 489.502 89.0558 487.018 90.0699 485.117C95.4598 475.012 101.423 465.375 103.2 453.524C103.023 451.744 101.122 451.529 100.452 450.198C105.072 450.623 109.321 451.386 113.582 452.138C114.969 455.128 115.668 458.743 117.856 461.007C118.186 461.465 120.58 461.465 120.909 461.007C123.046 461.007 125.184 461.007 127.321 461.007C129.766 460.824 133.018 461.374 134.955 460.73C138.393 459.517 141.495 456.054 145.032 453.247C146.398 452.162 148.204 451.084 149.917 449.644C152.577 447.407 153.756 444.988 158.161 445.764C158.683 446.399 160.491 445.866 161.52 446.042C164.064 446.042 166.608 446.042 169.153 446.042C170.462 450.211 172.246 453.95 173.428 458.235C176.465 458.955 179.163 461.477 182.893 461.838C187.613 462.295 192.814 460.731 198.466 461.284C199.394 461.11 201.096 461.639 201.519 461.007C203.834 459.779 205.519 455.863 207.015 452.97C208.525 450.052 209.346 446.959 211.29 444.933C214.159 446.086 216.56 447.813 219.535 449.367C221.825 450.564 226.318 451.734 227.779 453.801C228.634 455.012 229.043 457.685 229.611 459.621C231.42 465.79 232.763 472.298 233.58 479.298C235.696 481.904 239.155 483.29 238.16 488.72C238.354 489.653 237.767 491.294 238.465 491.768C238.465 493.338 238.465 494.909 238.465 496.479C238.659 497.412 238.072 499.054 238.771 499.528C238.771 501.006 238.771 502.484 238.771 503.962Z" fill="#DE463D"/>
<path  path id="path10" fill-rule="evenodd" clip-rule="evenodd" d="M401.172 598.195C398.438 600.676 395.363 603.366 391.988 606.231C388.985 608.781 385.999 612.121 382.498 614.267C379.083 616.361 374.729 618.039 370.253 620.364C366.218 622.46 361.884 626.054 358.008 626.738C355.19 627.234 351.812 626.921 348.823 627.015C345.789 627.11 342.566 627.175 339.334 627.292C334.215 627.477 325.068 628.571 320.354 627.846C316.65 627.276 313.98 623.83 310.252 622.581C307.675 619.077 308.091 611.382 305.048 608.725C302.264 606.294 297.301 607.584 293.108 605.953C298.143 602.857 292.556 596.418 291.884 591.821C289.477 590.582 286.63 589.742 283.618 589.05C282.5 586.189 278.497 583.567 277.496 580.459C276.532 577.471 276.496 573.054 275.966 569.098C275.467 565.381 274.939 561.493 274.435 557.736C272.868 546.051 272.048 535.634 271.986 525.591C269.499 524.333 266.73 523.329 264.027 522.266C262.753 520.001 261.087 518.091 260.047 515.614C266.855 514.852 271.621 508.956 276.884 507.579C283.681 505.8 290.749 507.683 295.865 503.699C297.236 500.691 298.387 497.484 299.845 494.554C303.518 494.554 307.191 494.554 310.865 494.554C313.724 494.371 317.393 494.921 319.743 494.277C323.824 494.277 327.907 494.277 331.988 494.277C336.988 494.277 341.989 494.277 346.989 494.277C353.637 496.573 360.37 498.791 366.581 501.481C369.079 510.121 371.597 518.741 373.928 527.531C379.36 531.482 384.586 535.618 390.153 539.446C391.79 540.089 394.742 539.541 396.889 539.724C398.02 539.547 399.938 540.082 400.562 539.446C406.62 540.219 409.189 536.358 412.807 535.844C411.835 543.397 413.913 547.293 416.481 551.917C421.085 560.206 425.901 569.822 431.175 576.026C428.887 576.541 426.171 576.668 424.135 577.411C416.35 584.223 408.698 591.151 401.172 598.195Z" fill="#FF928B"/>
<path  path id="path11" fill-rule="evenodd" clip-rule="evenodd" d="M568.749 411.231C570.163 403.2 573.142 396.587 573.328 387.444C578.713 380.884 584.472 375.382 587.982 366.976C591.541 358.448 591.795 348.372 594.698 338.763C596.031 334.352 598.855 330.089 600.803 325.762C602.867 321.181 604.317 316.497 606.908 312.762C614.879 311.449 623.082 313.161 630.11 311.379C636.441 309.775 641.875 303.863 651.175 305.571C653.4 305.121 652.012 307.947 652.396 309.166C651.271 313.925 644.913 317.582 644.459 322.443C644.185 325.372 646.989 328.991 647.816 332.124C649.066 336.852 647.665 342.377 651.175 345.4C652.497 345.4 653.82 345.4 655.144 345.4C656.168 346.04 658.496 345.498 660.028 345.677C661.758 345.677 663.488 345.677 665.218 345.677C663.592 349.295 662.582 352.65 661.859 356.741C661.181 360.579 661.06 365.263 659.723 369.188C658.469 372.866 655.141 377.611 652.701 381.912C650.285 386.168 646.659 389.733 643.848 392.975C640.958 396.311 637.668 399.687 634.385 403.486C631.565 406.747 628.064 412.58 624.921 413.997C620.698 415.901 615.097 415.968 609.657 416.21C608.232 416.21 606.807 416.21 605.382 416.21C603.347 416.21 601.312 416.21 599.277 416.21C598.349 416.383 596.647 415.855 596.224 416.486C584.943 416.659 575.89 414.812 568.749 411.231Z" fill="#FF928B"/>
<path  path id="path12" fill-rule="evenodd" clip-rule="evenodd" d="M471.441 418.222C473.487 416.284 475.824 414.816 478.172 412.974C480.363 411.256 482.36 408.593 484.904 407.726C486.828 407.07 490.087 407.007 492.554 406.621C498.747 405.652 503.333 405.423 510.301 405.792C520.086 406.311 526.248 407.545 532.944 410.212C549.126 416.657 562.075 428.312 580.985 430.099C581.651 431.524 581.124 434.027 581.292 435.9C581.292 437.741 581.292 439.583 581.292 441.425C581.488 442.536 580.895 444.361 581.598 445.015C581.598 446.581 581.598 448.146 581.598 449.711C581.598 451.552 581.598 453.394 581.598 455.235C581.793 456.256 581.202 457.986 581.904 458.55C581.217 463.914 583.442 465.764 585.269 469.046C586.488 471.235 587.244 473.785 588.33 475.123C589.625 476.72 592.789 478.458 595.061 480.095C597.456 481.82 599.604 483.774 602.1 485.067C604.557 486.34 607.729 487.324 610.667 488.658C613.503 489.945 616.305 491.835 618.929 492.525C626.398 494.489 635.904 494.43 643.102 496.392C644.67 498.199 646.731 499.561 648.304 501.363C649.155 503.726 649.678 506.385 650.752 508.546C656.622 512.454 663.409 515.535 669.111 519.594C669.647 523.096 670.369 526.357 670.948 529.538C671.55 532.853 671.585 536.558 672.784 539.482C673.452 541.11 675.464 543.257 676.762 545.006C682.577 552.846 688.437 560.359 692.062 569.59C688.671 570.675 683.342 569.248 679.821 570.695C676.793 571.94 676.145 576.739 673.701 579.534C672.444 580.972 669.128 583.358 666.97 583.953C663.457 584.922 659.291 584.079 655.954 584.782C653.344 585.331 651.616 587.399 649.223 587.82C646.56 588.289 643.687 587.29 640.043 587.544C637.011 585.168 635.748 581.844 632.392 579.258C629.759 577.229 625.986 576.305 623.519 574.286C621.924 572.98 617.929 567.916 617.092 565.723C617.092 564.249 617.092 562.776 617.092 561.303C616.901 560.464 617.485 558.924 616.787 558.541C617.025 556.117 616.339 554.526 616.481 552.188C613.793 550.613 611.836 548.046 608.525 546.94C599.381 543.886 587.891 547.228 580.373 550.254C577.597 554.285 575.157 558.62 571.806 562.132C561.817 562.322 554.503 564.927 547.021 567.38C539.215 557.669 537.759 542.226 534.169 528.709C531.134 525.74 527.972 522.886 524.683 520.146C520.538 518.364 515.517 517.373 512.443 514.622C511.041 513.126 509.511 511.745 507.854 510.479C507.745 510.116 507.315 510.045 507.241 509.65C505.941 508.246 504.514 506.957 502.958 505.783C498.534 501.596 498.793 492.965 498.062 484.515C497.689 480.214 498.088 475.206 496.837 471.808C495.492 468.15 488.931 465.722 487.352 461.865C486.121 458.856 486.16 454.628 485.516 451.092C484.827 447.307 484.451 442.842 483.374 439.767C482.06 436.017 479.119 432.619 477.255 429.271C475.141 425.477 473.345 421.844 471.441 418.222Z" fill="#FFE6E4"/>
<path  path id="path13" fill-rule="evenodd" clip-rule="evenodd" d="M416.746 307.029C408.416 311.834 398.728 315.412 387.735 317.809C383.817 314.63 379.641 311.684 376.131 308.135C375.138 307.006 374.019 305.993 372.772 305.095C370.026 302.515 367.207 298.027 367.275 294.04C367.311 291.914 368.795 288.814 369.718 286.024C371.554 280.47 373.47 275.579 375.215 270.269C376.123 267.505 377.541 264.42 377.658 261.978C377.831 258.347 376.41 254.474 375.52 251.198C374.638 247.95 373.528 244.841 372.466 241.248C369.148 239.737 365.233 238.766 362.389 236.826C362.389 236.457 362.389 236.089 362.389 235.72C363.093 234.975 362.497 233.055 362.694 231.851C362.694 229.824 362.694 227.797 362.694 225.771C362.694 223.928 362.694 222.085 362.694 220.243C363.397 219.498 362.802 217.577 362.999 216.373C362.999 214.346 362.999 212.32 362.999 210.292C362.999 208.45 362.999 206.607 362.999 204.765C363.703 204.02 363.107 202.099 363.305 200.895C363.305 198.868 363.305 196.841 363.305 194.814C363.859 187.819 363.743 182.285 366.053 177.678C368.017 173.761 373.286 171.191 376.131 167.451C378.173 164.766 378.878 162.121 381.017 159.436C388.451 158.794 394.644 157.028 402.088 156.396C404.685 159.021 408.185 160.828 411.555 162.752C415.793 172.016 416.755 181.722 419.801 191.498C422.883 201.394 430.02 210.035 430.184 222.178C428.433 225.384 426.957 228.839 425.298 232.128C422.081 233.179 418.875 234.239 415.83 235.444C415.344 239.163 414.088 243.615 414.609 247.33C420.621 252.22 431.37 251.114 440.567 253.41C445.253 254.581 448.739 256.933 452.782 257.833C459.598 270.09 464.632 283.961 474.159 293.764C482.204 294.314 490.476 294.658 498.284 295.422C498.284 296.067 498.284 296.712 498.284 297.357C497.576 298.651 498.179 301.131 497.979 302.885C497.979 305.28 497.979 307.676 497.979 310.071C495.333 310.071 492.685 310.071 490.038 310.071C488.91 310.248 486.996 309.713 486.374 310.348C484.44 310.348 482.506 310.348 480.571 310.348C479.443 310.524 477.53 309.99 476.908 310.624C475.075 310.624 473.243 310.624 471.411 310.624C470.181 310.801 468.163 310.265 467.441 310.9C459.668 311.42 453.311 313.222 445.758 313.941C440.668 313.941 435.578 313.941 430.489 313.941C427.461 311.798 425.428 308.755 421.938 307.031C420.91 306.57 417.774 306.57 416.746 307.029Z" fill="#FF928B"/>
<path  path id="path14" fill-rule="evenodd" clip-rule="evenodd" d="M497.979 329.017C495.629 333.124 493.615 337.535 489.727 340.261C487.969 341.61 486.34 343.072 484.837 344.649C484.591 344.702 484.533 344.925 484.226 344.924C482.822 346.131 481.15 347.1 480.253 348.764C477.782 355.047 474.363 360.482 471.392 366.317C466.553 364.625 463.406 361.415 458.25 360.009C457.627 359.38 455.713 359.909 454.583 359.734C452.75 359.734 450.916 359.734 449.082 359.734C448.459 359.105 446.545 359.635 445.416 359.46C434.518 360.921 433.237 353.751 427.385 350.684C425.954 350.048 423.211 350.589 421.273 350.409C419.84 350.586 417.614 350.051 416.689 350.684C414.651 350.684 412.614 350.684 410.577 350.684C408.942 350.862 406.508 350.323 405.382 350.958C397.116 351.585 388.696 352.073 380.628 352.878C378.782 345.575 376.174 338.956 373.294 332.582C378.906 328.568 385.209 325.174 388.573 319.143C396.421 317.343 403.629 315.68 410.271 312.56C414.322 310.658 415.845 308.036 422.189 308.721C424.609 311.121 427.155 313.407 429.83 315.578C444.608 317.315 455.677 313.365 468.641 312.561C469.77 312.386 471.685 312.916 472.308 312.287C474.142 312.287 475.975 312.287 477.809 312.287C479.039 312.111 481.059 312.643 481.781 312.013C483.615 312.013 485.448 312.013 487.283 312.013C488.512 311.837 490.531 312.369 491.255 311.738C493.089 311.738 494.922 311.738 496.756 311.738C497.265 311.738 497.775 311.738 498.284 311.738C498.284 313.293 498.284 314.847 498.284 316.401C498.284 318.047 498.284 319.693 498.284 321.338C497.583 321.897 498.173 323.616 497.979 324.629C497.979 326.091 497.979 327.553 497.979 329.017Z" fill="#FFBAB5"/>
<path  path id="path15" fill-rule="evenodd" clip-rule="evenodd" d="M661.528 192.358C664.38 196.668 672.737 196.031 678.047 198.131C676.648 204.764 684.962 206.835 686.001 211.602C687.086 216.581 683.15 219.798 682.636 224.798C679.992 227.095 676.806 228.905 674.682 231.67C674.682 231.854 674.682 232.037 674.682 232.22C674.173 234.331 674.173 238.357 674.682 240.467C675.125 242.634 676.784 243.71 677.436 245.69C677.436 247.523 677.436 249.355 677.436 251.188C670.949 255.272 675.53 262.296 673.458 269.057C672.4 272.512 663.827 277.144 661.834 280.329C660.879 281.853 661 283.83 660.305 285.002C658.192 288.562 650.804 290.744 650.21 294.624C649.903 296.625 651.838 298.019 652.657 299.573C652.657 300.856 652.657 302.139 652.657 303.422C652.212 303.572 651.076 303.1 651.127 303.697C641.101 302.102 636.504 308.236 629.102 309.744C621.877 311.216 615.238 309.597 606.77 311.119C603.904 276.49 596.872 245.604 597.288 208.026C604.512 205.15 611.383 201.711 618.701 198.404C622.392 196.737 625.12 195.138 630.631 195.38C631.662 195.206 633.473 195.735 633.997 195.106C635.628 195.106 637.26 195.106 638.892 195.106C639.922 194.931 641.733 195.46 642.256 194.831C643.888 194.831 645.518 194.831 647.15 194.831C648.18 194.657 649.992 195.185 650.516 194.556C655.483 194.99 658.164 193.367 661.528 192.358Z" fill="#A71A12"/>
<path  path id="path16" fill-rule="evenodd" clip-rule="evenodd" d="M222.801 252.575C226.859 255.893 226.827 262.881 235.047 262.463C238.7 269.827 245.817 273.029 252.804 277.846C257.308 280.951 262.212 283.761 266.275 286.911C274.032 292.926 279.898 301.143 286.787 306.689C290.209 309.444 294.457 311.603 297.809 314.654C299.212 316.142 300.742 317.516 302.401 318.774C302.708 318.774 302.766 318.997 303.014 319.049C304.518 320.629 306.152 322.094 307.912 323.444C309.315 324.932 310.846 326.306 312.504 327.564C312.811 327.564 312.868 327.787 313.116 327.839C314.519 329.328 316.05 330.701 317.708 331.96C319.056 333.223 320.137 334.725 321.994 335.53C330.044 336.452 342.286 337.415 351.385 338.278C354.858 338.607 358.699 339.587 361.181 339.102C365.123 338.331 366.879 333.812 370.978 333.333C371.946 336.587 374.035 339.601 375.264 342.947C376.253 345.638 378.39 351.42 378.326 353.935C378.261 356.465 375.275 364.513 374.345 366.571C371.265 373.389 366.179 378.488 361.487 383.601C355.173 390.482 347.522 397.018 340.668 402.28C338.887 400.929 337.587 399.19 335.77 397.885C333.93 396.564 332.097 395.327 330.259 394.039C326.684 391.534 323.125 388.674 319.238 386.623C307.032 380.182 293.882 375.918 280.663 371.515C274.473 369.453 268.086 366.39 261.681 363.549C255.478 360.796 248.44 358.483 243.006 355.308C238.902 352.91 234.858 348.881 230.76 345.694C220.332 337.587 210.203 329.992 200.145 321.796C198.132 320.156 195.29 318.374 194.022 316.852C191.635 313.988 191.012 309.96 189.123 306.963C187.404 304.236 184.323 301.389 181.776 298.723C177.588 294.34 174.264 289.832 168.611 287.46C168.611 287.369 168.611 287.278 168.611 287.186C173.682 285.685 178.702 278.859 183.919 277.846C189.514 276.76 195.343 278.29 201.982 277.297C204.109 275.499 206.56 273.394 209.023 270.979C210.898 269.141 214.767 266.141 215.452 264.112C215.885 262.828 215.355 261.411 215.758 260.266C216.962 256.848 220.733 255.548 222.801 252.575Z" fill="#FFBAB5"/>
<path  path id="path17" fill-rule="evenodd" clip-rule="evenodd" d="M639.026 99.1085C638.714 101.615 636.789 102.209 636.276 104.634C635.803 106.871 636.436 114.858 637.192 117.342C637.733 119.114 641.341 125.431 642.69 126.182C646.334 128.211 652.493 126.958 657.045 127.84C661.997 128.8 666.163 130.915 670.484 131.983C672.157 138.185 670.628 143.455 672.316 148.836C673.623 153.004 678.298 155.787 676.592 162.097C674.65 164.577 673.353 167.639 671.095 169.832C668.288 170.751 665.752 170.115 663.459 171.214C661.555 172.126 658.585 176.408 658.266 178.949C657.81 182.609 659.656 185.906 661.932 188.066C661.496 188.777 660.946 189.384 661.016 190.552C657.423 191.354 654.791 193.026 649.715 192.486C648.687 192.661 646.878 192.13 646.355 192.763C644.726 192.763 643.098 192.763 641.468 192.763C640.44 192.937 638.632 192.406 638.108 193.039C636.48 193.039 634.851 193.039 633.221 193.039C632.193 193.213 630.385 192.682 629.863 193.315C622.405 193.424 616.541 197.392 610.926 199.945C605.721 202.313 600.824 204.101 596.265 206.576C589.198 204.957 581.79 203.647 574.886 201.879C564.43 189.42 553.596 175.83 545.261 162.373C549.319 162.085 553.868 162.24 557.477 161.544C559.405 156.336 558.466 150.29 559.615 145.244C560.477 141.458 563.245 137.543 564.196 133.365C565.564 127.36 565.317 119.822 566.029 112.921C566.355 109.754 566.909 106.341 567.251 102.975C567.579 99.7294 568.309 95.936 567.862 93.306C567.225 89.5645 564.635 85.564 562.975 81.7026C561.394 78.0286 558.558 73.6684 558.088 70.0993C557.819 68.0488 558.686 65.4464 559.004 62.9164C559.298 60.5686 559.115 57.9292 559.615 55.7334C560.922 49.9928 565.115 43.9406 566.64 37.4995C567.965 31.9064 566.891 25.5062 568.472 20.6472C571.989 15.5833 578.086 15.9219 584.66 12.6357C586.822 11.5546 590.143 9.24167 591.99 7.66289C593.896 6.03273 595.438 3.02045 597.183 2.41391C599.156 1.72671 603.472 1.4588 605.734 1.8615C607.611 2.19571 609.717 4.52908 611.842 6.00566C616.676 9.36485 619.846 11.4043 624.365 14.5696C626.454 16.0335 628.565 18.2498 630.473 18.99C635.623 20.9875 639.99 19.9192 646.05 22.0288C648.678 30.5558 644.824 32.8311 641.163 37.7757C639.194 40.4367 636.023 43.6655 635.971 46.3397C635.923 48.7753 639.287 53.7944 640.552 55.4566C642.596 58.1402 648.099 61.7005 649.105 64.8498C650.495 69.2105 648.821 73.1823 650.021 79.2157C648.01 81.8374 640.452 82.9748 639.026 85.8463C637.921 88.068 639.201 91.0455 638.72 94.6864C638.918 96.0746 638.32 98.1815 639.026 99.1085Z" fill="#DE463D"/>
<path  path id="path18" fill-rule="evenodd" clip-rule="evenodd" d="M469.604 419.843C472.557 426.658 478.971 432.899 481.513 440.55C482.603 443.831 482.969 447.976 483.65 451.594C484.358 455.362 484.025 459.832 485.482 462.913C487.278 466.715 493.671 469.035 494.947 472.576C496.23 476.14 495.488 481.388 495.863 485.829C496.641 495.058 497.105 503.827 502.581 508.469C503.878 509.873 505.302 511.161 506.854 512.334C508.254 513.83 509.781 515.21 511.435 516.475C514.58 518.877 519.465 519.705 523.037 521.721C525.963 524.597 529.017 527.358 532.197 530.004C535.982 543.792 537.439 559.684 545.937 569.21C553.616 567.129 562.778 564.009 573.111 563.411C574.635 561.623 576.072 559.887 577.692 557.613C578.989 555.792 579.812 552.905 581.966 551.539C586.799 548.476 600.566 545.816 607.919 548.502C610.204 549.337 611.385 551.648 613.415 552.367C614.131 552.824 614.076 553.978 614.026 555.129C614.217 555.968 613.634 557.506 614.331 557.889C614.331 559.086 614.331 560.282 614.331 561.479C614.529 562.864 613.931 564.969 614.636 565.896C614.636 566.264 614.636 566.633 614.636 567C616.815 570.001 619.572 572.477 621.658 575.559C628.322 578.554 633.629 582.773 637.536 588.26C634.192 590.121 626.744 589.811 624.712 592.677C623.165 594.859 624.864 597.513 624.407 600.407C623.925 603.459 620.892 606.234 621.048 608.966C617.211 609.914 611.375 609.054 609.14 611.451C607.377 615.99 607.206 620.369 602.729 622.495C599.925 623.826 594.04 624.459 590.21 625.256C586.587 626.01 579.752 626.486 577.997 628.293C575.904 630.447 576.206 635.66 575.555 638.784C574.739 642.687 573.827 645.869 572.806 649C568.735 649 564.664 649 560.593 649C555.553 648.679 551.539 647.432 546.548 647.067C540.446 643.583 533.319 639.038 526.701 635.195C524.321 633.813 519.132 632.518 519.984 629.397C520.492 628.377 520.492 625.448 519.984 624.427C518.41 615.267 515.339 607.462 512.962 599.027C512.962 598.015 512.962 597.002 512.962 595.99C512.962 595.07 512.962 594.149 512.962 593.23C512.962 590.008 512.962 586.787 512.962 583.566C513.668 582.548 513.068 580.349 513.267 578.873C513.066 576.846 513.67 574.09 512.962 572.522C513.385 567.592 507.95 568.305 503.802 567.552C500.115 566.884 497.46 565.489 494.336 565.896C491.493 566.267 487.35 569.671 484.26 571.418C480.951 573.289 476.697 574.943 474.184 576.939C469.833 580.4 467.223 585.833 463.803 588.26C460.922 588.715 455.998 588.715 453.117 588.26C449.667 585.437 452.418 580.228 451.59 576.111C451.142 573.878 447.184 570.057 445.484 569.486C444.137 569.032 440.132 568.56 437.545 569.486C434.993 570.398 435.02 573.163 432.66 574.731C425.162 566.233 420.811 554.891 414.951 544.913C414.748 541.231 415.356 536.815 414.646 533.593C411.776 525.192 412.143 517.345 413.73 507.364C414.577 502.034 415.275 496.605 416.477 492.455C417.129 490.206 419.019 487.982 418.921 485.829C418.797 483.155 416.346 480.544 415.256 478.375C413.901 475.679 412.992 473.385 411.592 470.92C407.269 470.32 402.479 470.142 397.547 470.092C396.593 467.088 395.762 463.975 395.104 460.705C407.247 460.424 417.045 461.405 425.637 458.22C429.642 456.736 433.791 452.247 437.24 449.384C448.796 439.793 459.959 429.806 469.604 419.843Z" fill="#FFE6E4"/>
<path  path id="path19" fill-rule="evenodd" clip-rule="evenodd" d="M375.225 310.014C378.506 313.293 382.737 315.712 385.877 319.119C380.378 328.022 368.803 331.415 360.618 337.881C352.358 337.057 342.261 336.007 332.923 335.122C327.465 334.605 322.693 335.035 320.446 331.811C318.95 330.225 317.327 328.753 315.577 327.397C314.182 325.902 312.661 324.522 311.012 323.258C310.766 323.205 310.708 322.981 310.404 322.982C308.907 321.395 307.284 319.923 305.534 318.567C304.139 317.073 302.618 315.693 300.969 314.428C292.949 309.616 285.461 302.345 278.753 295.666C276.277 293.201 269.919 289.133 269.319 286.285C269.015 284.841 270.349 277.085 271.145 275.249C271.703 273.96 272.939 273.225 273.884 272.489C275.025 271.685 276.04 270.765 276.927 269.73C276.927 269.638 276.927 269.547 276.927 269.454C278.17 268.558 279.286 267.547 280.274 266.42C281.052 265.561 281.558 264.456 283.622 264.764C286.97 264.764 290.317 264.764 293.665 264.764C295.596 264.583 298.327 265.128 299.751 264.488C303.699 264.572 307.413 264.444 311.011 264.212C314.861 260.805 317.333 256.147 319.228 250.968C325.855 249.526 331.235 246.955 337.184 244.898C338.707 239.013 341.116 233.932 344.183 229.447C349.219 227.339 352.39 222.876 360.617 224.48C360.617 224.756 360.617 225.032 360.617 225.308C359.911 226.782 360.513 229.444 360.313 231.378C360.313 233.493 360.313 235.609 360.313 237.724C362.982 240.178 367.433 241.017 370.964 242.69C372.756 248.883 374.483 255.135 375.834 261.729C373.215 269.021 370.639 277.724 367.921 286.01C366.991 288.843 365.228 291.691 365.182 294.012C365.112 297.517 367.826 300.474 368.53 303.945C369.518 305.072 370.634 306.083 371.877 306.98C372.866 308.106 373.982 309.117 375.225 310.014Z" fill="#DE463D"/>
<path  path id="path20" fill-rule="evenodd" clip-rule="evenodd" d="M422.365 147.196C425.283 149.082 426.39 153.54 429.396 155.452C433.328 157.954 439.05 157.714 443.455 159.855C446.15 161.166 448.765 163.536 451.402 165.36C459.425 170.91 467.486 176.697 474.937 182.147C477.211 190.926 479.715 199.495 481.968 208.293C485.752 210.113 488.22 213.12 494.805 212.42C496.945 212.42 499.084 212.42 501.223 212.42C502.454 212.244 504.474 212.778 505.197 212.145C507.133 212.145 509.069 212.145 511.004 212.145C513.145 212.145 515.284 212.145 517.423 212.145C518.654 211.968 520.673 212.503 521.397 211.87C530.216 212.93 532.93 208.494 538.207 206.366C543.308 197.289 548.699 188.475 554.101 179.671C557.267 183.259 560.177 187.406 563.577 191.78C565.808 194.648 570.311 202.02 573.663 203.614C579.573 206.424 587.984 205.539 594.754 208.568C594.754 209.852 594.754 211.136 594.754 212.42C594.041 216.732 594.651 222.236 594.448 227.006C579.74 231.376 560.877 232.006 550.434 240.217C548.065 242.12 545.823 244.138 543.709 246.271C540.205 251.004 537.563 256.516 534.235 261.408C525.501 264.065 520.296 267.328 513.756 271.865C511.667 273.315 508.74 274.365 507.643 275.994C505.766 278.779 506.053 283.635 504.28 287.002C503.59 288.313 499.434 293.028 498.168 293.332C495.068 294.075 490.563 292.745 486.859 292.507C483.065 292.262 479.312 292.047 475.243 291.956C465.514 282.277 461.15 267.767 453.541 256.179C449.227 255.373 445.737 252.625 440.705 251.5C431.898 249.532 421.784 250.456 416.252 246.271C416.426 242.851 417.004 239.793 417.474 236.639C420.723 235.802 423.591 234.623 426.644 233.612C427.84 229.414 431.337 226.546 431.84 222.328C432.796 214.328 428.746 208.007 426.339 202.238C424.902 198.794 422.975 195.165 421.754 191.504C418.342 181.274 417.123 170.614 413.196 162.057C410.236 160.134 406.608 158.814 404.332 156.277C408.335 155.285 412.383 156.799 415.335 155.727C419.101 154.36 419.33 149.149 422.365 147.196Z" fill="#A71A12"/>
<path  path id="path21" fill-rule="evenodd" clip-rule="evenodd" d="M511.523 317.296C512.852 317.296 514.179 317.296 515.508 317.296C518.769 315.543 518.097 310.259 524.4 311.239C524.825 311.867 526.533 311.342 527.465 311.514C533.244 311.464 538.527 311.859 544.021 312.065C545.587 316.073 546.928 320.284 548.313 324.455C563.377 329.191 579.083 333.348 593.076 339.047C590.281 354.081 587.919 366.312 580.505 376.767C577.987 380.319 573.235 383.049 571.921 386.679C570.885 389.543 571.488 392.751 571.002 395.49C570.111 400.494 568.101 404.803 567.016 409.807C554.059 403.887 541.073 395.071 524.4 391.635C520.96 390.926 516.101 391.034 511.829 390.809C499.33 390.15 490.423 391.32 479.637 393.562C477.231 384.985 474.824 376.409 472.28 367.957C476.171 362.274 478.742 355.405 482.397 349.509C484.058 348.248 485.59 346.871 486.996 345.379C488.759 344.026 490.394 342.558 491.9 340.974C495.57 338.12 497.228 333.461 499.872 329.686C500.581 328.762 499.98 326.662 500.179 325.281C500.179 323.72 500.179 322.16 500.179 320.6C500.884 319.948 500.289 318.129 500.485 317.021C500.485 315.645 500.485 314.268 500.485 312.891C503.443 313.998 504.167 317.111 508.457 317.021C508.882 317.648 510.591 317.123 511.523 317.296Z" fill="#DE463D"/>
<path  path id="path22" fill-rule="evenodd" clip-rule="evenodd" d="M674.909 376.353C676.913 377.755 678.228 379.78 679.782 381.589C682.165 381.821 684.664 381.948 687.396 381.864C691.289 387.609 687.834 396.424 685.263 402.532C684.345 404.715 682.271 407.597 682.523 409.146C683.041 412.328 690.849 414.625 692.269 417.413C694.918 421.906 696.46 427.399 699.578 431.467C703.228 432.574 708.299 432.395 712.674 432.845C716.203 436.082 720.247 438.853 726.987 439.183C725.278 442.658 723.004 445.257 720.592 448.828C719.198 450.891 714.378 456.487 714.805 459.3C715.162 461.648 719.194 462.08 719.983 464.811C720.885 467.935 719.343 469.37 719.983 473.354C726.109 481.405 740.623 481.868 751.352 485.755C752.677 486.393 755.307 485.85 757.138 486.03C757.845 487.962 757.241 491.081 757.442 493.471C750.201 495.428 746.611 498.24 744.652 504.769C743.244 509.455 743.988 515.462 742.215 519.926C740.831 523.412 737.73 525.22 736.124 527.918C732.582 529.403 728.481 528.682 726.074 530.673C724.798 531.728 722.746 537.423 721.81 540.318C721.128 542.43 722.536 545.182 722.114 546.932C721.618 548.992 719.035 550.098 717.851 551.341C716.323 551.52 714 550.98 712.978 551.617C708.465 552.058 704.756 550.85 702.015 552.168C699.777 553.243 698.661 557.494 697.446 559.884C695.839 563.041 694.599 565.752 693.182 567.875C689.576 559.859 684.899 552.355 679.782 545.554C678.034 543.231 675.479 540.998 674.604 538.665C672.291 532.484 673.25 525.401 670.646 518.548C664.883 514.576 658.125 511.505 652.372 507.525C651.479 505.118 650.83 502.491 649.936 500.085C648.236 498.316 646.409 496.663 644.455 495.124C636.486 492.907 626.551 493.234 619.177 490.991C616.679 490.231 613.935 488.351 611.258 487.132C605.149 484.354 601.394 482.561 596.639 479.141C594.559 477.645 591.758 475.915 590.548 474.456C588.03 471.418 587.153 467.435 584.762 463.709C584.566 462.509 585.159 460.594 584.457 459.851C584.457 458.29 584.457 456.728 584.457 455.166C584.457 453.329 584.457 451.492 584.457 449.655C584.264 448.636 584.852 446.91 584.153 446.348C584.153 444.694 584.153 443.041 584.153 441.388C584.153 439.551 584.153 437.714 584.153 435.876C583.959 434.858 584.547 433.131 583.848 432.57C583.848 432.11 583.848 431.651 583.848 431.191C586.171 431.57 588.271 432.15 591.157 432.018C592.578 432.018 594 432.018 595.421 432.018C597.451 432.018 599.482 432.018 601.512 432.018C602.438 431.846 604.136 432.371 604.558 431.743C607.298 431.743 610.04 431.743 612.781 431.743C613.807 431.568 615.61 432.098 616.131 431.467C621.365 430.296 627.331 430.037 632.576 428.161C637.232 426.495 639.414 423.29 642.322 419.893C647.403 413.958 652.324 408.25 657.245 402.532C660.596 398.64 664.594 394.963 666.991 390.958C669.972 385.975 672.188 380.66 674.909 376.353Z" fill="#FFBAB5"/>
<path  path id="path23"  fill-rule="evenodd" clip-rule="evenodd" d="M98.8317 374.177C100.541 371.416 101.8 368.25 104.011 365.941C108.048 366.319 111.275 364.499 114.371 365.117C115.79 365.401 118.776 367.895 119.55 368.961C120.76 370.629 121.439 373.36 122.597 375.825C125.58 382.172 129.79 390.422 132.043 396.141C136.068 399.791 141.194 401.372 148.495 402.73C151.686 403.324 154.981 404.316 157.636 404.104C163.802 403.611 169.048 399.569 174.088 398.338C175.415 393.154 181.816 388.19 183.229 383.512C184.861 378.108 182.889 371.586 184.448 366.765C185.435 363.711 187.876 362.135 189.627 359.626C193.52 359.871 196.224 361.186 199.377 362.098C202.74 362.91 208.198 361.836 211.564 362.647C215.577 369.307 217.676 376.941 221.618 383.512C222.664 385.256 224.908 386.706 225.579 388.729C226.629 391.891 225.492 395.073 226.493 398.338C221.135 402.936 214.971 406.808 209.735 411.516C209.735 414.262 209.735 417.007 209.735 419.753C209.026 422.042 209.632 425.517 209.43 428.264C209.43 432.839 209.43 437.415 209.43 441.991C208.057 448.807 204.034 453.234 201.508 459.013C201.047 459.696 198.884 458.844 198.462 459.562C189.78 459.857 180.248 461.136 175.306 457.091C173.693 453.145 172.348 448.957 170.736 445.011C168.092 444.556 165.131 444.388 161.9 444.462C161.379 443.833 159.575 444.361 158.549 444.187C157.025 444.187 155.502 444.187 153.978 444.187C147.324 448.99 141.9 454.902 134.479 459.013C131.94 459.013 129.401 459.013 126.862 459.013C125.434 459.19 123.214 458.654 122.292 459.287C121.073 459.287 119.854 459.287 118.636 459.287C117.572 456.311 116.427 453.408 114.98 450.776C109.2 449.761 103.266 448.886 97.308 448.031C98.5027 443.885 104.2 437.646 104.925 433.206C105.991 426.682 104.925 417.926 104.925 409.594C104.925 401.243 106.231 392.136 104.925 385.709C103.96 380.956 99.6243 377.439 98.8317 374.177Z" fill="#DE463D"/>
<path  path id="path24" fill-rule="evenodd" clip-rule="evenodd" d="M212.553 411.601C214.947 409.84 217.603 407.643 220.811 405.264C222.981 403.654 228.056 401.059 228.763 398.652C229.709 395.429 227.566 392.212 228.152 387.906C223.793 383.045 221.736 377.509 218.671 371.1C215.618 364.719 211.967 359.897 212.247 351.263C219.944 356.072 225.634 363.249 233.657 368.069C237.517 370.389 242.418 371.867 246.808 373.855C259.686 379.688 272.909 386.245 287.486 390.111C290.025 401.141 290.478 412.425 295.133 420.968C298.442 427.043 304.99 429.647 310.731 433.367C310.731 433.458 310.731 433.55 310.731 433.642C304.656 442.222 298.793 450.99 294.215 460.919C294.277 472.545 291.694 481.791 287.487 489.572C281.805 490.979 273.691 490.982 268.83 493.154C267.025 493.96 260.642 499.111 259.961 500.593C258.095 504.646 259.622 510.085 257.514 514.919C255.976 515.003 255.098 515.682 253.844 516.022C249.601 513.692 245.591 511.15 241.611 508.583C241.611 507.94 241.611 507.297 241.611 506.654C241.417 505.726 242.004 504.095 241.305 503.624C241.305 502.154 241.305 500.685 241.305 499.215C241.112 498.288 241.699 496.656 240.999 496.184C240.999 494.623 240.999 493.062 240.999 491.501C240.806 490.573 241.394 488.942 240.693 488.47C242.251 482.438 237.159 481.613 235.8 478C234.353 474.153 234.565 469.424 233.353 465.051C232.158 460.741 231.034 456.618 229.989 452.653C224.208 449.411 218.072 446.489 212.249 443.285C212.249 438.602 212.249 433.918 212.249 429.234C212.249 425.193 212.249 421.152 212.249 417.111C212.956 415.822 212.353 413.349 212.553 411.601ZM342.232 426.754C329.478 413.724 316.346 401.032 296.967 393.968C298.231 402.472 299.746 410.751 302.778 417.662C306.262 420.479 310.728 425.759 315.623 427.03C321.842 428.643 328.618 427.424 336.421 427.581C337.483 426.646 342.647 428.121 342.232 426.754Z" fill="#FF928B"/>
<path d="M234.035 429.941H239.555V431.301H234.035V429.941ZM234.035 434.101H239.555V435.481H234.035V434.101ZM230.735 428.401C233.395 428.401 235.395 430.201 235.395 432.701C235.395 435.221 233.395 437.001 230.735 437.001C228.055 437.001 226.075 435.221 226.075 432.701C226.075 430.201 228.055 428.401 230.735 428.401ZM230.735 429.821C228.975 429.821 227.675 431.001 227.675 432.701C227.675 434.401 228.975 435.581 230.735 435.581C232.495 435.581 233.815 434.401 233.815 432.701C233.815 431.001 232.495 429.821 230.735 429.821ZM239.015 427.341H240.675V438.041H239.015V427.341ZM234.735 438.461C238.455 438.461 240.755 439.741 240.755 441.921C240.755 444.121 238.455 445.381 234.735 445.381C230.995 445.381 228.695 444.121 228.695 441.921C228.695 439.741 230.995 438.461 234.735 438.461ZM234.735 439.781C231.995 439.781 230.335 440.581 230.335 441.921C230.335 443.281 231.995 444.081 234.735 444.081C237.455 444.081 239.115 443.281 239.115 441.921C239.115 440.581 237.455 439.781 234.735 439.781ZM244.214 435.941H260.554V437.321H244.214V435.941ZM246.274 432.881H258.654V434.221H246.274V432.881ZM246.274 428.061H258.514V429.421H247.914V433.521H246.274V428.061ZM252.354 438.881C256.214 438.881 258.554 440.061 258.554 442.141C258.554 444.221 256.214 445.381 252.354 445.381C248.494 445.381 246.154 444.221 246.154 442.141C246.154 440.061 248.494 438.881 252.354 438.881ZM252.354 440.161C249.534 440.161 247.834 440.881 247.834 442.141C247.834 443.381 249.534 444.081 252.354 444.081C255.194 444.081 256.874 443.381 256.874 442.141C256.874 440.881 255.194 440.161 252.354 440.161ZM262.612 441.801H278.992V443.181H262.612V441.801ZM269.912 437.121H271.572V442.421H269.912V437.121ZM264.032 429.061H277.452V430.421H264.032V429.061ZM264.072 436.341H277.432V437.681H264.072V436.341ZM266.852 430.161H268.512V436.581H266.852V430.161ZM273.012 430.161H274.652V436.581H273.012V430.161ZM283.05 428.521H294.35V429.861H283.05V428.521ZM281.01 436.281H297.35V437.641H281.01V436.281ZM288.31 437.181H289.97V445.441H288.31V437.181ZM293.57 428.521H295.19V430.081C295.19 431.961 295.19 434.081 294.51 437.141L292.87 436.921C293.57 434.001 293.57 431.901 293.57 430.081V428.521Z" fill="black"/>
<path fill-rule="evenodd" clip-rule="evenodd" d="M427.2 353.791C432.492 356.982 434.367 363.213 444.617 361.759C445.24 362.389 447.155 361.858 448.284 362.034C450.118 362.034 451.951 362.034 453.784 362.034C454.407 362.663 456.322 362.133 457.451 362.308C462.424 364.065 466.443 366.678 470.59 369.176C472.402 377.807 475.883 386.393 477.313 394.452C466.544 400.412 457.017 409.927 447.673 419.179C440.593 426.189 433.477 431.736 425.978 438.136C421.443 442.006 419.342 444.686 412.533 445.279C404.66 445.964 390.281 446.196 384.422 444.18C380.879 442.961 377.813 438.917 375.255 436.213C372.331 433.121 369.499 430.38 367.005 427.421C365.767 425.512 363.852 424.211 362.117 422.75C360.78 422.395 360.196 421.364 359.366 420.552C358.17 419.247 356.846 418.057 355.394 416.981C354.3 415.767 353.078 414.668 351.728 413.684C348.376 410.745 345.394 407.474 342.256 404.343C358.056 390.618 375.002 377.923 380.451 354.891C388.894 354.515 396.641 353.513 405.201 353.243C406.933 353.243 408.664 353.243 410.396 353.243C411.828 353.065 414.054 353.602 414.979 352.968C417.016 352.968 419.053 352.968 421.09 352.968C423.28 353.104 426.315 352.481 427.2 353.791Z" fill="#DE463D"/>
<path d="M80.469 315.271H82.129V326.091H80.469V315.271ZM81.669 319.931H84.809V321.331H81.669V319.931ZM75.469 316.591H77.249C77.249 321.231 74.029 324.611 68.809 326.151L68.109 324.811C72.709 323.451 75.469 320.731 75.469 317.351V316.591ZM68.909 316.591H76.409V317.971H68.909V316.591ZM76.469 326.311C80.049 326.311 82.329 327.631 82.329 329.811C82.329 331.991 80.049 333.311 76.469 333.311C72.869 333.311 70.569 331.991 70.569 329.811C70.569 327.631 72.869 326.311 76.469 326.311ZM76.469 327.631C73.869 327.631 72.209 328.451 72.209 329.811C72.209 331.171 73.869 331.991 76.469 331.991C79.069 331.991 80.729 331.171 80.729 329.811C80.729 328.451 79.069 327.631 76.469 327.631ZM95.5274 321.391H100.567V322.751H95.5274V321.391ZM91.1674 316.831H92.5274V320.051C92.5274 324.111 90.3874 327.991 87.5274 329.531L86.4674 328.211C89.1274 326.891 91.1674 323.411 91.1674 320.051V316.831ZM91.4874 316.831H92.8274V320.051C92.8274 323.351 94.8674 326.631 97.4874 327.871L96.5074 329.211C93.5874 327.731 91.4874 324.011 91.4874 320.051V316.831ZM99.7474 315.251H101.387V333.371H99.7474V315.251ZM106.946 316.451H118.246V317.791H106.946V316.451ZM104.906 324.211H121.246V325.571H104.906V324.211ZM112.206 325.111H113.866V333.371H112.206V325.111ZM117.466 316.451H119.086V318.011C119.086 319.891 119.086 322.011 118.406 325.071L116.766 324.851C117.466 321.931 117.466 319.831 117.466 318.011V316.451Z" fill="black"/>
<path d="M143.705 418.332H146.845V419.712H143.705V418.332ZM143.705 422.172H146.845V423.552H143.705V422.172ZM135.225 416.692C137.945 416.692 139.945 418.452 139.945 420.972C139.945 423.472 137.945 425.212 135.225 425.212C132.505 425.212 130.505 423.472 130.505 420.972C130.505 418.452 132.505 416.692 135.225 416.692ZM135.225 418.092C133.425 418.092 132.125 419.272 132.125 420.972C132.125 422.672 133.425 423.832 135.225 423.832C137.025 423.832 138.325 422.672 138.325 420.972C138.325 419.272 137.025 418.092 135.225 418.092ZM142.545 415.632H144.205V426.332H142.545V415.632ZM138.445 426.912C142.125 426.912 144.385 428.172 144.385 430.292C144.385 432.432 142.125 433.672 138.445 433.672C134.765 433.672 132.505 432.432 132.505 430.292C132.505 428.172 134.765 426.912 138.445 426.912ZM138.445 428.252C135.765 428.252 134.125 428.992 134.125 430.292C134.125 431.592 135.765 432.352 138.445 432.352C141.125 432.352 142.765 431.592 142.765 430.292C142.765 428.992 141.125 428.252 138.445 428.252ZM153.083 419.032H154.443V419.932C154.443 423.192 152.463 425.872 149.443 426.932L148.623 425.632C151.303 424.712 153.083 422.472 153.083 419.932V419.032ZM153.363 419.032H154.743V419.932C154.743 422.332 156.583 424.452 159.263 425.292L158.443 426.612C155.423 425.612 153.363 423.052 153.363 419.932V419.032ZM149.083 418.052H158.723V419.392H149.083V418.052ZM153.083 415.752H154.743V418.552H153.083V415.752ZM158.123 421.192H162.683V422.572H158.123V421.192ZM161.783 415.652H163.443V429.132H161.783V415.652ZM151.903 431.952H163.943V433.312H151.903V431.952ZM151.903 427.932H153.563V432.692H151.903V427.932ZM169.022 416.812H180.322V418.152H169.022V416.812ZM166.982 424.572H183.322V425.932H166.982V424.572ZM174.282 425.472H175.942V433.732H174.282V425.472ZM179.542 416.812H181.162V418.372C181.162 420.252 181.162 422.372 180.482 425.432L178.842 425.212C179.542 422.292 179.542 420.192 179.542 418.372V416.812Z" fill="black"/>
<path d="M133.064 479.538H144.364V480.878H133.064V479.538ZM131.024 487.298H147.364V488.658H131.024V487.298ZM138.324 488.198H139.984V496.458H138.324V488.198ZM143.584 479.538H145.204V481.098C145.204 482.978 145.204 485.098 144.524 488.158L142.884 487.938C143.584 485.018 143.584 482.918 143.584 481.098V479.538ZM149.422 492.838H165.802V494.218H149.422V492.838ZM156.742 488.958H158.402V493.418H156.742V488.958ZM151.402 479.698H163.782V485.178H153.102V488.798H151.462V483.838H162.142V481.038H151.402V479.698ZM151.462 488.098H164.202V489.458H151.462V488.098ZM169.861 479.538H181.161V480.878H169.861V479.538ZM167.821 487.298H184.161V488.658H167.821V487.298ZM175.121 488.198H176.781V496.458H175.121V488.198ZM180.381 479.538H182.001V481.098C182.001 482.978 182.001 485.098 181.321 488.158L179.681 487.938C180.381 485.018 180.381 482.918 180.381 481.098V479.538Z" fill="black"/>
<path d="M390.897 397.498H392.537V400.918H390.897V397.498ZM397.537 397.498H399.177V400.918H397.537V397.498ZM386.857 400.318H403.197V401.658H386.857V400.318ZM395.017 403.018C398.897 403.018 401.217 404.158 401.217 406.218C401.217 408.278 398.897 409.438 395.017 409.438C391.137 409.438 388.817 408.278 388.817 406.218C388.817 404.158 391.137 403.018 395.017 403.018ZM395.017 404.298C392.197 404.298 390.497 404.998 390.497 406.218C390.497 407.458 392.197 408.138 395.017 408.138C397.857 408.138 399.537 407.458 399.537 406.218C399.537 404.998 397.857 404.298 395.017 404.298ZM395.037 391.698C398.957 391.698 401.397 392.958 401.397 395.078C401.397 397.178 398.957 398.418 395.037 398.418C391.097 398.418 388.677 397.178 388.677 395.078C388.677 392.958 391.097 391.698 395.037 391.698ZM395.037 392.998C392.157 392.998 390.377 393.758 390.377 395.078C390.377 396.378 392.157 397.138 395.037 397.138C397.917 397.138 399.697 396.378 399.697 395.078C399.697 393.758 397.917 392.998 395.037 392.998ZM409.715 392.478H411.075V394.698C411.075 398.238 409.115 401.058 406.075 402.238L405.195 400.918C407.955 399.938 409.715 397.498 409.715 394.698V392.478ZM409.995 392.478H411.355V394.758C411.355 397.218 413.155 399.538 415.795 400.478L414.975 401.778C411.995 400.698 409.995 397.938 409.995 394.758V392.478ZM417.635 391.358H419.295V404.718H417.635V391.358ZM418.775 396.918H421.975V398.298H418.775V396.918ZM408.075 407.698H420.095V409.058H408.075V407.698ZM408.075 403.458H409.735V408.358H408.075V403.458ZM425.714 392.558H437.014V393.898H425.714V392.558ZM423.674 400.318H440.014V401.678H423.674V400.318ZM430.974 401.218H432.634V409.478H430.974V401.218ZM436.234 392.558H437.854V394.118C437.854 395.998 437.854 398.118 437.174 401.178L435.534 400.958C436.234 398.038 436.234 395.938 436.234 394.118V392.558Z" fill="black"/>
<path d="M244.131 324.598H252.431V336.298H244.131V324.598ZM250.811 325.938H245.751V334.958H250.811V325.938ZM255.651 322.798H257.331V340.878H255.651V322.798ZM256.931 330.018H260.291V331.418H256.931V330.018ZM261.83 337.258H278.21V338.638H261.83V337.258ZM269.13 332.578H270.79V337.878H269.13V332.578ZM263.25 324.518H276.67V325.878H263.25V324.518ZM263.29 331.798H276.65V333.138H263.29V331.798ZM266.07 325.618H267.73V332.038H266.07V325.618ZM272.23 325.618H273.87V332.038H272.23V325.618ZM282.268 323.978H293.568V325.318H282.268V323.978ZM280.228 331.738H296.568V333.098H280.228V331.738ZM287.528 332.638H289.188V340.898H287.528V332.638ZM292.788 323.978H294.408V325.538C294.408 327.418 294.408 329.538 293.728 332.598L292.088 332.378C292.788 329.458 292.788 327.358 292.788 325.538V323.978Z" fill="black"/>
<path d="M219.507 541.187H231.147V542.547H219.507V541.187ZM217.427 547.847H233.807V549.207H217.427V547.847ZM230.067 541.187H231.687V542.527C231.687 544.067 231.687 545.827 231.087 548.327L229.467 548.247C230.067 545.767 230.067 544.027 230.067 542.527V541.187ZM219.427 551.667H231.747V558.087H219.427V551.667ZM230.127 552.987H221.047V556.747H230.127V552.987ZM240.325 543.647H241.685V544.547C241.685 547.807 239.705 550.487 236.685 551.547L235.865 550.247C238.545 549.327 240.325 547.087 240.325 544.547V543.647ZM240.605 543.647H241.985V544.547C241.985 546.947 243.825 549.067 246.505 549.907L245.685 551.227C242.665 550.227 240.605 547.667 240.605 544.547V543.647ZM236.325 542.667H245.965V544.007H236.325V542.667ZM240.325 540.367H241.985V543.167H240.325V540.367ZM245.365 545.807H249.925V547.187H245.365V545.807ZM249.025 540.267H250.685V553.747H249.025V540.267ZM239.145 556.567H251.185V557.927H239.145V556.567ZM239.145 552.547H240.805V557.307H239.145V552.547ZM256.263 541.427H267.563V542.767H256.263V541.427ZM254.223 549.187H270.563V550.547H254.223V549.187ZM261.523 550.087H263.183V558.347H261.523V550.087ZM266.783 541.427H268.403V542.987C268.403 544.867 268.403 546.987 267.723 550.047L266.083 549.827C266.783 546.907 266.783 544.807 266.783 542.987V541.427Z" fill="white"/>
<path d="M650.05 465.442H651.69V468.822H650.05V465.442ZM650.03 459.402H651.47V460.202C651.47 463.462 648.01 465.782 644.33 466.382L643.69 465.062C646.93 464.622 650.03 462.622 650.03 460.202V459.402ZM650.29 459.402H651.71V460.202C651.71 462.622 654.83 464.622 658.05 465.062L657.43 466.382C653.77 465.762 650.29 463.462 650.29 460.202V459.402ZM642.71 468.102H659.05V469.422H642.71V468.102ZM650.87 470.922C654.75 470.922 657.07 472.042 657.07 474.042C657.07 476.062 654.75 477.162 650.87 477.162C646.99 477.162 644.67 476.062 644.67 474.042C644.67 472.042 646.99 470.922 650.87 470.922ZM650.87 472.202C648.03 472.202 646.35 472.862 646.35 474.042C646.35 475.222 648.03 475.882 650.87 475.882C653.73 475.882 655.39 475.222 655.39 474.042C655.39 472.862 653.73 472.202 650.87 472.202ZM661.348 461.062H671.408V462.422H661.348V461.062ZM661.088 472.742L660.888 471.322C664.148 471.322 668.528 471.282 672.248 470.822L672.348 472.062C668.568 472.682 664.268 472.742 661.088 472.742ZM663.288 462.082H664.908V471.702H663.288V462.082ZM667.848 462.082H669.468V471.702H667.848V462.082ZM673.348 459.122H675.028V477.202H673.348V459.122ZM674.628 466.342H677.988V467.742H674.628V466.342ZM681.567 460.302H692.867V461.642H681.567V460.302ZM679.527 468.062H695.867V469.422H679.527V468.062ZM686.827 468.962H688.487V477.222H686.827V468.962ZM692.087 460.302H693.707V461.862C693.707 463.742 693.707 465.862 693.027 468.922L691.387 468.702C692.087 465.782 692.087 463.682 692.087 461.862V460.302Z" fill="black"/>
<path d="M723.038 360.434H724.698V371.254H723.038V360.434ZM724.238 365.094H727.378V366.494H724.238V365.094ZM718.038 361.754H719.818C719.818 366.394 716.598 369.774 711.378 371.314L710.678 369.974C715.278 368.614 718.038 365.894 718.038 362.514V361.754ZM711.478 361.754H718.978V363.134H711.478V361.754ZM719.038 371.474C722.618 371.474 724.898 372.794 724.898 374.974C724.898 377.154 722.618 378.474 719.038 378.474C715.438 378.474 713.138 377.154 713.138 374.974C713.138 372.794 715.438 371.474 719.038 371.474ZM719.038 372.794C716.438 372.794 714.778 373.614 714.778 374.974C714.778 376.334 716.438 377.154 719.038 377.154C721.638 377.154 723.298 376.334 723.298 374.974C723.298 373.614 721.638 372.794 719.038 372.794ZM729.076 369.334H745.416V370.694H729.076V369.334ZM736.416 366.434H738.056V369.894H736.416V366.434ZM731.136 365.914H743.516V367.274H731.136V365.914ZM731.136 361.254H743.376V362.594H732.776V366.714H731.136V361.254ZM737.216 371.994C741.076 371.994 743.416 373.174 743.416 375.234C743.416 377.334 741.076 378.494 737.216 378.494C733.356 378.494 731.016 377.334 731.016 375.234C731.016 373.174 733.356 371.994 737.216 371.994ZM737.216 373.274C734.396 373.274 732.696 373.994 732.696 375.234C732.696 376.494 734.396 377.194 737.216 377.194C740.056 377.194 741.736 376.494 741.736 375.234C741.736 373.994 740.056 373.274 737.216 373.274ZM749.515 361.614H760.815V362.954H749.515V361.614ZM747.475 369.374H763.815V370.734H747.475V369.374ZM754.775 370.274H756.435V378.534H754.775V370.274ZM760.035 361.614H761.655V363.174C761.655 365.054 761.655 367.174 760.975 370.234L759.335 370.014C760.035 367.094 760.035 364.994 760.035 363.174V361.614Z" fill="black"/>
<path d="M558.621 496.757H560.281V507.577H558.621V496.757ZM559.821 501.417H562.961V502.817H559.821V501.417ZM553.621 498.077H555.401C555.401 502.717 552.181 506.097 546.961 507.637L546.261 506.297C550.861 504.937 553.621 502.217 553.621 498.837V498.077ZM547.061 498.077H554.561V499.457H547.061V498.077ZM554.621 507.797C558.201 507.797 560.481 509.117 560.481 511.297C560.481 513.477 558.201 514.797 554.621 514.797C551.021 514.797 548.721 513.477 548.721 511.297C548.721 509.117 551.021 507.797 554.621 507.797ZM554.621 509.117C552.021 509.117 550.361 509.937 550.361 511.297C550.361 512.657 552.021 513.477 554.621 513.477C557.221 513.477 558.881 512.657 558.881 511.297C558.881 509.937 557.221 509.117 554.621 509.117ZM577.019 496.757H578.679V506.977H577.019V496.757ZM578.239 500.897H581.359V502.277H578.239V500.897ZM567.279 507.957H578.679V514.597H567.279V507.957ZM577.059 509.297H568.919V513.237H577.059V509.297ZM565.519 497.657H567.179V504.897H565.519V497.657ZM565.519 504.217H566.939C569.539 504.217 572.239 504.037 575.199 503.437L575.399 504.797C572.339 505.437 569.639 505.617 566.939 505.617H565.519V504.217ZM585.098 497.937H596.398V499.277H585.098V497.937ZM583.058 505.697H599.398V507.057H583.058V505.697ZM590.358 506.597H592.018V514.857H590.358V506.597ZM595.618 497.937H597.238V499.497C597.238 501.377 597.238 503.497 596.558 506.557L594.918 506.337C595.618 503.417 595.618 501.317 595.618 499.497V497.937Z" fill="black"/>
<path d="M457.134 527.967H462.174V529.327H457.134V527.967ZM452.774 523.407H454.134V526.627C454.134 530.687 451.994 534.567 449.134 536.107L448.074 534.787C450.734 533.467 452.774 529.987 452.774 526.627V523.407ZM453.094 523.407H454.434V526.627C454.434 529.927 456.474 533.207 459.094 534.447L458.114 535.787C455.194 534.307 453.094 530.587 453.094 526.627V523.407ZM461.354 521.827H462.994V539.947H461.354V521.827ZM466.512 536.267H482.892V537.647H466.512V536.267ZM473.852 532.187H475.512V537.007H473.852V532.187ZM473.852 525.627H475.312V526.027C475.312 529.727 471.952 532.127 468.032 532.807L467.392 531.487C470.932 530.927 473.852 528.827 473.852 526.027V525.627ZM474.072 525.627H475.512V526.027C475.512 528.827 478.432 530.927 481.972 531.487L481.332 532.807C477.412 532.127 474.072 529.727 474.072 526.027V525.627ZM468.012 524.687H481.332V526.067H468.012V524.687ZM473.852 522.227H475.512V525.187H473.852V522.227ZM486.951 523.027H498.251V524.367H486.951V523.027ZM484.911 530.787H501.251V532.147H484.911V530.787ZM492.211 531.687H493.871V539.947H492.211V531.687ZM497.471 523.027H499.091V524.587C499.091 526.467 499.091 528.587 498.411 531.647L496.771 531.427C497.471 528.507 497.471 526.407 497.471 524.587V523.027Z" fill="black"/>
<path d="M314.856 555.865H322.856V557.225H314.856V555.865ZM317.576 559.905H319.216V564.425H317.576V559.905ZM322.196 555.865H323.836V556.825C323.836 558.005 323.836 559.805 323.356 562.185L321.736 562.005C322.196 559.625 322.196 557.985 322.196 556.825V555.865ZM326.296 554.465H327.956V568.085H326.296V554.465ZM327.196 560.345H330.536V561.725H327.196V560.345ZM316.536 570.785H328.536V572.145H316.536V570.785ZM316.536 566.825H318.176V571.205H316.536V566.825ZM313.936 565.205L313.756 563.845C316.976 563.845 321.416 563.765 325.076 563.265L325.196 564.465C321.436 565.125 317.116 565.205 313.936 565.205ZM337.334 555.525C340.054 555.525 342.054 557.285 342.054 559.825C342.054 562.345 340.054 564.085 337.334 564.085C334.614 564.085 332.614 562.345 332.614 559.825C332.614 557.285 334.614 555.525 337.334 555.525ZM337.334 556.945C335.534 556.945 334.234 558.105 334.234 559.825C334.234 561.525 335.534 562.705 337.334 562.705C339.134 562.705 340.434 561.525 340.434 559.825C340.434 558.105 339.134 556.945 337.334 556.945ZM344.654 554.465H346.314V565.105H344.654V554.465ZM345.854 559.105H348.994V560.505H345.854V559.105ZM334.574 566.045H346.314V572.565H344.654V567.385H334.574V566.045ZM352.733 555.645H364.033V556.985H352.733V555.645ZM350.693 563.405H367.033V564.765H350.693V563.405ZM357.993 564.305H359.653V572.565H357.993V564.305ZM363.253 555.645H364.873V557.205C364.873 559.085 364.873 561.205 364.193 564.265L362.553 564.045C363.253 561.125 363.253 559.025 363.253 557.205V555.645Z" fill="black"/>
<path d="M323.123 473.04H339.463V474.4H323.123V473.04ZM330.463 470.14H332.103V473.6H330.463V470.14ZM325.183 469.62H337.563V470.98H325.183V469.62ZM325.183 464.96H337.423V466.3H326.823V470.42H325.183V464.96ZM331.263 475.7C335.123 475.7 337.463 476.88 337.463 478.94C337.463 481.04 335.123 482.2 331.263 482.2C327.403 482.2 325.063 481.04 325.063 478.94C325.063 476.88 327.403 475.7 331.263 475.7ZM331.263 476.98C328.443 476.98 326.743 477.7 326.743 478.94C326.743 480.2 328.443 480.9 331.263 480.9C334.103 480.9 335.783 480.2 335.783 478.94C335.783 477.7 334.103 476.98 331.263 476.98ZM345.962 466H347.322V467.46C347.322 470.78 345.322 473.54 342.302 474.62L341.422 473.32C344.162 472.36 345.962 470.04 345.962 467.46V466ZM346.262 466H347.622V467.44C347.622 469.84 349.362 472.06 352.022 472.96L351.162 474.26C348.182 473.22 346.262 470.56 346.262 467.44V466ZM341.942 465.4H351.602V466.76H341.942V465.4ZM353.882 464.14H355.542V475.02H353.882V464.14ZM355.082 468.9H358.222V470.28H355.082V468.9ZM343.802 475.98H355.542V482.22H353.882V477.36H343.802V475.98ZM361.96 465.32H373.26V466.66H361.96V465.32ZM359.92 473.08H376.26V474.44H359.92V473.08ZM367.22 473.98H368.88V482.24H367.22V473.98ZM372.48 465.32H374.1V466.88C374.1 468.76 374.1 470.88 373.42 473.94L371.78 473.72C372.48 470.8 372.48 468.7 372.48 466.88V465.32Z" fill="black"/>
<path d="M292.904 185.939H309.244V187.299H292.904V185.939ZM295.024 192.759H307.444V194.119H295.024V192.759ZM295.024 188.879H296.684V193.179H295.024V188.879ZM301.084 177.039C304.944 177.039 307.444 178.399 307.444 180.659C307.444 182.899 304.944 184.259 301.084 184.259C297.204 184.259 294.724 182.899 294.724 180.659C294.724 178.399 297.204 177.039 301.084 177.039ZM301.084 178.399C298.244 178.399 296.424 179.239 296.424 180.659C296.424 182.079 298.244 182.919 301.084 182.919C303.924 182.919 305.744 182.079 305.744 180.659C305.744 179.239 303.924 178.399 301.084 178.399ZM321.563 179.659H325.443V181.019H321.563V179.659ZM321.563 182.899H325.443V184.259H321.563V182.899ZM311.843 177.799H321.363V179.159H311.843V177.799ZM311.543 186.519L311.363 185.119C314.323 185.119 318.543 185.079 321.923 184.679L322.023 185.919C318.543 186.479 314.483 186.519 311.543 186.519ZM313.643 178.859H315.243V185.579H313.643V178.859ZM317.963 178.859H319.563V185.579H317.963V178.859ZM324.523 176.439H326.183V187.599H324.523V176.439ZM320.243 187.959C323.983 187.959 326.263 189.139 326.263 191.219C326.263 193.299 323.983 194.479 320.243 194.479C316.483 194.479 314.203 193.299 314.203 191.219C314.203 189.139 316.483 187.959 320.243 187.959ZM320.243 189.259C317.503 189.259 315.863 189.979 315.863 191.219C315.863 192.459 317.503 193.199 320.243 193.199C322.983 193.199 324.623 192.459 324.623 191.219C324.623 189.979 322.983 189.259 320.243 189.259ZM331.761 177.619H343.061V178.959H331.761V177.619ZM329.721 185.379H346.061V186.739H329.721V185.379ZM337.021 186.279H338.681V194.539H337.021V186.279ZM342.281 177.619H343.901V179.179C343.901 181.059 343.901 183.179 343.221 186.239L341.581 186.019C342.281 183.099 342.281 180.999 342.281 179.179V177.619Z" fill="black"/>
<path d="M473.896 138.803H475.556V149.623H473.896V138.803ZM475.096 143.463H478.236V144.863H475.096V143.463ZM468.896 140.123H470.676C470.676 144.763 467.456 148.143 462.236 149.683L461.536 148.343C466.136 146.983 468.896 144.263 468.896 140.883V140.123ZM462.336 140.123H469.836V141.503H462.336V140.123ZM469.896 149.843C473.476 149.843 475.756 151.163 475.756 153.343C475.756 155.523 473.476 156.843 469.896 156.843C466.296 156.843 463.996 155.523 463.996 153.343C463.996 151.163 466.296 149.843 469.896 149.843ZM469.896 151.163C467.296 151.163 465.636 151.983 465.636 153.343C465.636 154.703 467.296 155.523 469.896 155.523C472.496 155.523 474.156 154.703 474.156 153.343C474.156 151.983 472.496 151.163 469.896 151.163ZM487.254 148.543H488.894V151.663H487.254V148.543ZM479.914 147.643H496.254V149.003H479.914V147.643ZM481.734 151.103H494.234V156.883H492.574V152.443H481.734V151.103ZM482.094 139.223H483.734V141.263H492.474V139.223H494.134V145.983H482.094V139.223ZM483.734 142.563V144.663H492.474V142.563H483.734ZM500.372 139.983H511.672V141.323H500.372V139.983ZM498.332 147.743H514.672V149.103H498.332V147.743ZM505.632 148.643H507.292V156.903H505.632V148.643ZM510.892 139.983H512.512V141.543C512.512 143.423 512.512 145.543 511.832 148.603L510.192 148.383C510.892 145.463 510.892 143.363 510.892 141.543V139.983Z" fill="black"/>
<path d="M619.851 254.059H621.511V257.219H619.851V254.059ZM612.511 253.479H628.851V254.819H612.511V253.479ZM620.671 256.719C624.551 256.719 626.871 257.859 626.871 259.899C626.871 261.919 624.551 263.059 620.671 263.059C616.791 263.059 614.471 261.919 614.471 259.899C614.471 257.859 616.791 256.719 620.671 256.719ZM620.671 257.999C617.851 257.999 616.151 258.679 616.151 259.899C616.151 261.099 617.851 261.779 620.671 261.779C623.511 261.779 625.191 261.099 625.191 259.899C625.191 258.679 623.511 257.999 620.671 257.999ZM619.611 246.499H621.091V247.039C621.091 249.959 617.771 251.919 614.031 252.379L613.431 251.059C616.671 250.719 619.611 249.099 619.611 247.039V246.499ZM620.311 246.499H621.771V247.039C621.771 249.099 624.711 250.719 627.951 251.059L627.351 252.379C623.611 251.919 620.311 249.959 620.311 247.039V246.499ZM614.011 245.839H627.391V247.179H614.011V245.839ZM643.289 245.019H644.949V255.939H643.289V245.019ZM644.449 249.539H647.629V250.919H644.449V249.539ZM631.709 253.539H633.129C636.409 253.539 638.749 253.439 641.569 252.939L641.709 254.319C638.849 254.799 636.469 254.919 633.129 254.919H631.709V253.539ZM631.669 246.139H639.809V251.059H633.329V254.419H631.709V249.759H638.169V247.499H631.669V246.139ZM639.169 256.499C642.869 256.499 645.109 257.699 645.109 259.779C645.109 261.879 642.869 263.079 639.169 263.079C635.489 263.079 633.229 261.879 633.229 259.779C633.229 257.699 635.489 256.499 639.169 256.499ZM639.169 257.799C636.469 257.799 634.849 258.519 634.849 259.779C634.849 261.059 636.469 261.779 639.169 261.779C641.869 261.779 643.509 261.059 643.509 259.779C643.509 258.519 641.869 257.799 639.169 257.799ZM651.368 246.199H662.668V247.539H651.368V246.199ZM649.328 253.959H665.668V255.319H649.328V253.959ZM656.628 254.859H658.288V263.119H656.628V254.859ZM661.888 246.199H663.508V247.759C663.508 249.639 663.508 251.759 662.828 254.819L661.188 254.599C661.888 251.679 661.888 249.579 661.888 247.759V246.199Z" fill="white"/>
<path d="M528.645 287.372H544.985V288.732H528.645V287.372ZM535.985 284.472H537.625V287.932H535.985V284.472ZM530.705 283.952H543.085V285.312H530.705V283.952ZM530.705 279.292H542.945V280.632H532.345V284.752H530.705V279.292ZM536.785 290.032C540.645 290.032 542.985 291.212 542.985 293.272C542.985 295.372 540.645 296.532 536.785 296.532C532.925 296.532 530.585 295.372 530.585 293.272C530.585 291.212 532.925 290.032 536.785 290.032ZM536.785 291.312C533.965 291.312 532.265 292.032 532.265 293.272C532.265 294.532 533.965 295.232 536.785 295.232C539.625 295.232 541.305 294.532 541.305 293.272C541.305 292.032 539.625 291.312 536.785 291.312ZM560.783 278.472H562.383V296.552H560.783V278.472ZM557.723 285.712H561.203V287.092H557.723V285.712ZM556.683 278.872H558.243V295.632H556.683V278.872ZM547.683 290.712H548.863C551.503 290.712 553.303 290.612 555.403 290.172L555.563 291.552C553.403 292.012 551.583 292.092 548.863 292.092H547.683V290.712ZM547.683 280.672H554.403V282.032H549.323V291.332H547.683V280.672ZM565.421 287.712H581.801V289.072H565.421V287.712ZM572.901 288.552H574.561V292.712H572.901V288.552ZM567.521 279.312H579.681V285.672H567.521V279.312ZM578.041 280.652H569.141V284.332H578.041V280.652ZM567.501 294.792H579.981V296.152H567.501V294.792ZM567.501 290.972H569.141V295.272H567.501V290.972ZM585.88 279.652H597.18V280.992H585.88V279.652ZM583.84 287.412H600.18V288.772H583.84V287.412ZM591.14 288.312H592.8V296.572H591.14V288.312ZM596.4 279.652H598.02V281.212C598.02 283.092 598.02 285.212 597.34 288.272L595.7 288.052C596.4 285.132 596.4 283.032 596.4 281.212V279.652Z" fill="black"/>
<path d="M421.879 336.856H423.539V340.016H421.879V336.856ZM414.539 336.276H430.879V337.616H414.539V336.276ZM422.699 339.516C426.579 339.516 428.899 340.656 428.899 342.696C428.899 344.716 426.579 345.856 422.699 345.856C418.819 345.856 416.499 344.716 416.499 342.696C416.499 340.656 418.819 339.516 422.699 339.516ZM422.699 340.796C419.879 340.796 418.179 341.476 418.179 342.696C418.179 343.896 419.879 344.576 422.699 344.576C425.539 344.576 427.219 343.896 427.219 342.696C427.219 341.476 425.539 340.796 422.699 340.796ZM421.639 329.296H423.119V329.836C423.119 332.756 419.799 334.716 416.059 335.176L415.459 333.856C418.699 333.516 421.639 331.896 421.639 329.836V329.296ZM422.339 329.296H423.799V329.836C423.799 331.896 426.739 333.516 429.979 333.856L429.379 335.176C425.639 334.716 422.339 332.756 422.339 329.836V329.296ZM416.039 328.636H429.419V329.976H416.039V328.636ZM434.998 328.996H446.298V330.336H434.998V328.996ZM432.958 336.756H449.298V338.116H432.958V336.756ZM440.258 337.656H441.918V345.916H440.258V337.656ZM445.518 328.996H447.138V330.556C447.138 332.436 447.138 334.556 446.458 337.616L444.818 337.396C445.518 334.476 445.518 332.376 445.518 330.556V328.996Z" fill="black"/>
<path d="M397.552 272.347H399.192V275.707H397.552V272.347ZM390.212 274.927H406.552V276.267H390.212V274.927ZM398.372 277.747C402.252 277.747 404.572 278.867 404.572 280.867C404.572 282.867 402.252 283.967 398.372 283.967C394.492 283.967 392.172 282.867 392.172 280.867C392.172 278.867 394.492 277.747 398.372 277.747ZM398.372 279.027C395.532 279.027 393.852 279.687 393.852 280.867C393.852 282.047 395.532 282.687 398.372 282.687C401.232 282.687 402.892 282.047 402.892 280.867C402.892 279.687 401.232 279.027 398.372 279.027ZM397.312 267.407H398.792V267.947C398.792 270.847 395.472 272.807 391.712 273.267L391.112 271.927C394.372 271.607 397.312 269.987 397.312 267.947V267.407ZM398.012 267.407H399.472V267.947C399.472 269.987 402.412 271.607 405.672 271.927L405.072 273.267C401.332 272.807 398.012 270.847 398.012 267.947V267.407ZM391.712 266.747H405.092V268.087H391.712V266.747ZM408.631 280.407H425.011V281.787H408.631V280.407ZM415.951 276.527H417.611V280.987H415.951V276.527ZM410.611 267.267H422.991V272.747H412.311V276.367H410.671V271.407H421.351V268.607H410.611V267.267ZM410.671 275.667H423.411V277.027H410.671V275.667ZM429.069 267.107H440.369V268.447H429.069V267.107ZM427.029 274.867H443.369V276.227H427.029V274.867ZM434.329 275.767H435.989V284.027H434.329V275.767ZM439.589 267.107H441.209V268.667C441.209 270.547 441.209 272.667 440.529 275.727L438.889 275.507C439.589 272.587 439.589 270.487 439.589 268.667V267.107Z" fill="black"/>
<path d="M301.944 287.938H306.984V289.298H301.944V287.938ZM297.584 283.378H298.944V286.598C298.944 290.658 296.804 294.538 293.944 296.078L292.884 294.758C295.544 293.438 297.584 289.958 297.584 286.598V283.378ZM297.904 283.378H299.244V286.598C299.244 289.898 301.284 293.178 303.904 294.418L302.924 295.758C300.004 294.278 297.904 290.558 297.904 286.598V283.378ZM306.164 281.798H307.804V299.918H306.164V281.798ZM325.063 281.818H326.663V299.898H325.063V281.818ZM322.003 289.058H325.483V290.438H322.003V289.058ZM320.963 282.218H322.523V298.978H320.963V282.218ZM311.963 294.058H313.143C315.783 294.058 317.583 293.958 319.683 293.518L319.843 294.898C317.683 295.358 315.863 295.438 313.143 295.438H311.963V294.058ZM311.963 284.018H318.683V285.378H313.603V294.678H311.963V284.018ZM329.701 291.058H346.081V292.418H329.701V291.058ZM337.181 291.898H338.841V296.058H337.181V291.898ZM331.801 282.658H343.961V289.018H331.801V282.658ZM342.321 283.998H333.421V287.678H342.321V283.998ZM331.781 298.138H344.261V299.498H331.781V298.138ZM331.781 294.318H333.421V298.618H331.781V294.318ZM350.159 282.998H361.459V284.338H350.159V282.998ZM348.119 290.758H364.459V292.118H348.119V290.758ZM355.419 291.658H357.079V299.918H355.419V291.658ZM360.679 282.998H362.299V284.558C362.299 286.438 362.299 288.558 361.619 291.618L359.979 291.398C360.679 288.478 360.679 286.378 360.679 284.558V282.998Z" fill="black"/>
<path d="M467.753 231.821H469.133V233.681C469.133 237.181 467.153 240.041 464.053 241.201L463.193 239.841C465.953 238.861 467.753 236.441 467.753 233.681V231.821ZM468.053 231.821H469.413V233.621C469.413 236.181 471.173 238.441 473.813 239.361L472.913 240.661C469.993 239.561 468.053 236.901 468.053 233.621V231.821ZM476.413 230.801H478.073V241.501H476.413V230.801ZM472.133 242.021C475.853 242.021 478.153 243.281 478.153 245.441C478.153 247.601 475.853 248.841 472.133 248.841C468.393 248.841 466.093 247.601 466.093 245.441C466.093 243.281 468.393 242.021 472.133 242.021ZM472.133 243.341C469.413 243.341 467.753 244.121 467.753 245.441C467.753 246.761 469.413 247.541 472.133 247.541C474.853 247.541 476.513 246.761 476.513 245.441C476.513 244.121 474.853 243.341 472.133 243.341ZM472.493 234.621H476.773V236.001H472.493V234.621ZM488.932 240.541H490.572V243.661H488.932V240.541ZM481.592 239.641H497.932V241.001H481.592V239.641ZM483.412 243.101H495.912V248.881H494.252V244.441H483.412V243.101ZM483.772 231.221H485.412V233.261H494.152V231.221H495.812V237.981H483.772V231.221ZM485.412 234.561V236.661H494.152V234.561H485.412ZM502.05 231.981H513.35V233.321H502.05V231.981ZM500.01 239.741H516.35V241.101H500.01V239.741ZM507.31 240.641H508.97V248.901H507.31V240.641ZM512.57 231.981H514.19V233.541C514.19 235.421 514.19 237.541 513.51 240.601L511.87 240.381C512.57 237.461 512.57 235.361 512.57 233.541V231.981Z" fill="white"/>
<path d="M513.052 356.436H514.432V358.296C514.432 361.796 512.452 364.656 509.352 365.816L508.492 364.456C511.252 363.476 513.052 361.056 513.052 358.296V356.436ZM513.352 356.436H514.712V358.236C514.712 360.796 516.472 363.056 519.112 363.976L518.212 365.276C515.292 364.176 513.352 361.516 513.352 358.236V356.436ZM521.712 355.416H523.372V366.116H521.712V355.416ZM517.432 366.636C521.152 366.636 523.452 367.896 523.452 370.056C523.452 372.216 521.152 373.456 517.432 373.456C513.692 373.456 511.392 372.216 511.392 370.056C511.392 367.896 513.692 366.636 517.432 366.636ZM517.432 367.956C514.712 367.956 513.052 368.736 513.052 370.056C513.052 371.376 514.712 372.156 517.432 372.156C520.152 372.156 521.812 371.376 521.812 370.056C521.812 368.736 520.152 367.956 517.432 367.956ZM517.792 359.236H522.072V360.616H517.792V359.236ZM526.91 364.316H543.25V365.676H526.91V364.316ZM534.25 361.416H535.89V364.876H534.25V361.416ZM528.97 360.896H541.35V362.256H528.97V360.896ZM528.97 356.236H541.21V357.576H530.61V361.696H528.97V356.236ZM535.05 366.976C538.91 366.976 541.25 368.156 541.25 370.216C541.25 372.316 538.91 373.476 535.05 373.476C531.19 373.476 528.85 372.316 528.85 370.216C528.85 368.156 531.19 366.976 535.05 366.976ZM535.05 368.256C532.23 368.256 530.53 368.976 530.53 370.216C530.53 371.476 532.23 372.176 535.05 372.176C537.89 372.176 539.57 371.476 539.57 370.216C539.57 368.976 537.89 368.256 535.05 368.256ZM547.349 356.596H558.649V357.936H547.349V356.596ZM545.309 364.356H561.649V365.716H545.309V364.356ZM552.609 365.256H554.269V373.516H552.609V365.256ZM557.869 356.596H559.489V358.156C559.489 360.036 559.489 362.156 558.809 365.216L557.169 364.996C557.869 362.076 557.869 359.976 557.869 358.156V356.596Z" fill="black"/>
<path d="M599.23 356.536H607.23V357.896H599.23V356.536ZM601.95 360.456H603.59V364.776H601.95V360.456ZM606.57 356.536H608.19V357.516C608.19 358.656 608.19 360.276 607.73 362.416L606.11 362.276C606.57 360.156 606.57 358.656 606.57 357.516V356.536ZM610.67 355.416H612.33V366.696H610.67V355.416ZM611.57 360.336H614.91V361.736H611.57V360.336ZM598.33 365.456L598.13 364.076C601.41 364.076 605.79 364.016 609.45 363.536L609.57 364.756C605.83 365.376 601.55 365.456 598.33 365.456ZM606.49 366.916C610.21 366.916 612.51 368.116 612.51 370.176C612.51 372.256 610.21 373.456 606.49 373.456C602.77 373.456 600.51 372.256 600.51 370.176C600.51 368.116 602.77 366.916 606.49 366.916ZM606.49 368.216C603.81 368.216 602.17 368.936 602.17 370.176C602.17 371.416 603.81 372.136 606.49 372.136C609.19 372.136 610.81 371.416 610.81 370.176C610.81 368.936 609.19 368.216 606.49 368.216ZM621.469 357.396H622.849V359.236C622.849 362.556 620.809 365.336 617.769 366.436L616.909 365.116C619.629 364.156 621.469 361.816 621.469 359.236V357.396ZM621.789 357.396H623.169V359.236C623.169 361.676 625.049 363.876 627.729 364.776L626.869 366.076C623.869 365.056 621.789 362.416 621.789 359.236V357.396ZM617.349 356.916H627.249V358.256H617.349V356.916ZM629.809 355.436H631.489V368.656H629.809V355.436ZM619.869 371.736H632.029V373.096H619.869V371.736ZM619.869 367.416H621.509V372.336H619.869V367.416ZM637.107 356.596H648.407V357.936H637.107V356.596ZM635.067 364.356H651.407V365.716H635.067V364.356ZM642.367 365.256H644.027V373.516H642.367V365.256ZM647.627 356.596H649.247V358.156C649.247 360.036 649.247 362.156 648.567 365.216L646.927 364.996C647.627 362.076 647.627 359.976 647.627 358.156V356.596Z" fill="black"/>
<path d="M498.828 81.1726H511.248V82.5326H498.828V81.1726ZM496.768 87.1526H513.148V88.5526H496.768V87.1526ZM504.088 81.7526H505.748V87.7126H504.088V81.7526ZM498.828 74.1726H511.068V75.5326H500.488V81.7726H498.828V74.1726ZM515.146 81.7926H531.486V83.1326H515.146V81.7926ZM522.506 79.2726H524.146V82.2326H522.506V79.2726ZM523.306 84.4726C527.186 84.4726 529.486 85.6126 529.486 87.6326C529.486 89.6526 527.186 90.7726 523.306 90.7726C519.446 90.7726 517.126 89.6526 517.126 87.6326C517.126 85.6126 519.446 84.4726 523.306 84.4726ZM523.306 85.7526C520.466 85.7526 518.806 86.4326 518.806 87.6326C518.806 88.8326 520.466 89.5126 523.306 89.5126C526.146 89.5126 527.806 88.8326 527.806 87.6326C527.806 86.4326 526.146 85.7526 523.306 85.7526ZM517.326 73.1926H518.966V75.1926H527.706V73.1926H529.366V79.8726H517.326V73.1926ZM518.966 76.4926V78.5326H527.706V76.4926H518.966ZM535.605 73.9126H546.905V75.2526H535.605V73.9126ZM533.565 81.6726H549.905V83.0326H533.565V81.6726ZM540.865 82.5726H542.525V90.8326H540.865V82.5726ZM546.125 73.9126H547.745V75.4726C547.745 77.3526 547.745 79.4726 547.065 82.5326L545.425 82.3126C546.125 79.3926 546.125 77.2926 546.125 75.4726V73.9126Z" fill="white"/>
<path d="M584.332 108.532H596.852V109.892H584.332V108.532ZM582.332 114.712H598.712V116.092H582.332V114.712ZM589.672 109.372H591.312V115.152H589.672V109.372ZM584.332 101.852H585.992V109.132H584.332V101.852ZM605.85 109.432H607.51V113.452H605.85V109.432ZM613.87 100.332H615.53V114.092H613.87V100.332ZM603.19 116.652H615.97V118.012H603.19V116.652ZM603.19 112.752H604.85V117.032H603.19V112.752ZM600.85 110.052L600.63 108.692C603.97 108.692 608.45 108.652 612.29 108.152L612.41 109.372C608.51 109.992 604.13 110.052 600.85 110.052ZM610.19 111.012H614.29V112.232H610.19V111.012ZM606.51 101.072C609.15 101.072 610.95 102.312 610.95 104.212C610.95 106.132 609.15 107.372 606.51 107.372C603.85 107.372 602.05 106.132 602.05 104.212C602.05 102.312 603.85 101.072 606.51 101.072ZM606.51 102.312C604.81 102.312 603.63 103.052 603.63 104.212C603.63 105.372 604.81 106.112 606.51 106.112C608.19 106.112 609.37 105.372 609.37 104.212C609.37 103.052 608.19 102.312 606.51 102.312ZM621.169 101.512H632.469V102.852H621.169V101.512ZM619.129 109.272H635.469V110.632H619.129V109.272ZM626.429 110.172H628.089V118.432H626.429V110.172ZM631.689 101.512H633.309V103.072C633.309 104.952 633.309 107.072 632.629 110.132L630.989 109.912C631.689 106.992 631.689 104.892 631.689 103.072V101.512Z" fill="black"/>
</svg>
